<?xml version="1.0" encoding="UTF-8"?>
<svg class="animated" version="1.1" viewBox="0 0 500 500" xmlns="http://www.w3.org/2000/svg">
<style>svg#freepik_stories-barbecue:not(.animated) .animable {opacity: 0;}svg#freepik_stories-barbecue.animated #freepik--Plants--inject-103 {animation: 6s Infinite  linear shake;animation-delay: 0.5s;}svg#freepik_stories-barbecue.animated #freepik--Floor--inject-103 {animation: 6s Infinite  linear floating;animation-delay: 0s;}svg#freepik_stories-barbecue.animated #freepik--Meat--inject-103 {animation: 3s Infinite  linear heartbeat;animation-delay: 0s;}svg#freepik_stories-barbecue.animated #freepik--character-2--inject-103 {animation: 3s Infinite  linear floating;animation-delay: 0s;}svg#freepik_stories-barbecue.animated #freepik--character-1--inject-103 {animation: 6s Infinite  linear shake;animation-delay: 0s;}svg#freepik_stories-barbecue.animated #freepik--speech-bubble--inject-103 {animation: 1.5s Infinite  linear heartbeat;animation-delay: 0.5s;}            @keyframes shake {                10%, 90% {                    transform: translate3d(-1px, 0, 0);                  }                  20%, 80% {                    transform: translate3d(2px, 0, 0);                  }                  30%, 50%, 70% {                    transform: translate3d(-4px, 0, 0);                  }                  40%, 60% {                    transform: translate3d(4px, 0, 0);                  }            }                    @keyframes floating {                0% {                    opacity: 1;                    transform: translateY(0px);                }                50% {                    transform: translateY(-10px);                }                100% {                    opacity: 1;                    transform: translateY(0px);                }            }                    @keyframes heartbeat {                0% {                    transform: scale(1);                }                10% {                    transform: scale(1.1);                }                30% {                    transform: scale(1);                }                40% {                    transform: scale(1);                }                50% {                    transform: scale(1.1);                }                60% {                    transform: scale(1);                }                100% {                    transform: scale(1);                }            }</style>
<g class="animable" style="transform-origin:252.103px 263.612px">
<g class="animable" style="transform-origin:34.7011px 263.612px">
<path class="animable" d="m48.36 292.27l7.3-5s3.11-19.22 0-36.06c-4.36-23.68-20.75-31.48-26.57-29s-7 9.6 3.94 23.07c6.49 7.98 14.97 24.92 15.33 46.99z" fill="#c53f3f" style="transform-origin:40.887px 257.02px"/>
<path class="animable" d="m48.36 292.27l7.3-5s3.11-19.22 0-36.06c-4.36-23.68-20.75-31.48-26.57-29s-7 9.6 3.94 23.07c6.49 7.98 14.97 24.92 15.33 46.99z" fill="#fff" opacity=".4" style="transform-origin:40.887px 257.02px"/>
<path class="animable" d="M50.82,282.76h-.07a.53.53,0,0,1-.47-.58c2.52-22.34-7.05-46.5-17.36-56.08a.53.53,0,0,1,0-.75.53.53,0,0,1,.75,0c10.49,9.75,20.24,34.31,17.69,57A.55.55,0,0,1,50.82,282.76Z" fill="#fff" style="transform-origin:42.2675px 253.977px"/>
<path class="animable" d="M29.25,305.33c-1.16.7-4.58-1.8-5.52-2.4a11.13,11.13,0,0,1-3.84-4.19,10.53,10.53,0,0,1-1.1-6.29,25.71,25.71,0,0,1,.72-3.38c.28-1.1.57-2.19.85-3.29a8.26,8.26,0,0,0,.4-3.3c-.34-2.22-2.36-3.73-4.2-5-2-1.44-4.15-3.36-4.2-6a9.44,9.44,0,0,1,2.22-5.68c1.24-1.66,2.73-3.14,3.85-4.88a6.59,6.59,0,0,0,1.24-4.21,6.75,6.75,0,0,0-1-2.58,37.5,37.5,0,0,1-3-5.16c-.71-1.86-.67-4.2.76-5.58a6.15,6.15,0,0,1,4.59-1.26,10.61,10.61,0,0,1,4.34,1.4c4.32,2.26,6.88,7.25,11.45,9a46,46,0,0,0,5.5,1.2,6.75,6.75,0,0,1,4.6,3c1.74,3.27-1.24,7.44,0,10.93,1.11,3.08,4.17,4.2,5.94,7a6.69,6.69,0,0,1,.9,4.05,19.84,19.84,0,0,1-1.55,6.94,60.43,60.43,0,0,1-3.6,6.57Z" fill="#c53f3f" style="transform-origin:33.0706px 273.766px"/>
<path class="animable" d="M29.25,305.33c-1.16.7-4.58-1.8-5.52-2.4a11.13,11.13,0,0,1-3.84-4.19,10.53,10.53,0,0,1-1.1-6.29,25.71,25.71,0,0,1,.72-3.38c.28-1.1.57-2.19.85-3.29a8.26,8.26,0,0,0,.4-3.3c-.34-2.22-2.36-3.73-4.2-5-2-1.44-4.15-3.36-4.2-6a9.44,9.44,0,0,1,2.22-5.68c1.24-1.66,2.73-3.14,3.85-4.88a6.59,6.59,0,0,0,1.24-4.21,6.75,6.75,0,0,0-1-2.58,37.5,37.5,0,0,1-3-5.16c-.71-1.86-.67-4.2.76-5.58a6.15,6.15,0,0,1,4.59-1.26,10.61,10.61,0,0,1,4.34,1.4c4.32,2.26,6.88,7.25,11.45,9a46,46,0,0,0,5.5,1.2,6.75,6.75,0,0,1,4.6,3c1.74,3.27-1.24,7.44,0,10.93,1.11,3.08,4.17,4.2,5.94,7a6.69,6.69,0,0,1,.9,4.05,19.84,19.84,0,0,1-1.55,6.94,60.43,60.43,0,0,1-3.6,6.57Z" fill="#fff" opacity=".65" style="transform-origin:33.0706px 273.766px"/>
<path class="animable" d="M40.47,298.35h0a.54.54,0,0,1-.53-.54c.35-21.1-10.17-44.11-17.56-50.68a.53.53,0,0,1,0-.75.54.54,0,0,1,.75,0c7.54,6.71,18.26,30.1,17.91,51.49A.51.51,0,0,1,40.47,298.35Z" fill="#fff" style="transform-origin:31.6364px 272.291px"/>
<path class="animable" d="M36.43,272.69l-.16,0a70.67,70.67,0,0,0-15.35-2.08.53.53,0,0,1-.52-.54.52.52,0,0,1,.54-.53,73.16,73.16,0,0,1,15.62,2.12.54.54,0,0,1-.13,1.05Z" fill="#fff" style="transform-origin:28.6636px 271.125px"/>
</g>
<g class="animable" style="transform-origin:470.283px 262.33px">
<path class="animable" d="m462.75 298.73l-9-6.22s-4.51-14.37-5-28.53c-0.64-19.89 8.94-45.17 24.8-41.6s-3.59 26.45-6.32 43.75-4.48 32.6-4.48 32.6z" fill="#c53f3f" style="transform-origin:464.215px 260.385px"/>
<path class="animable" d="m462.75 298.73l-9-6.22s-4.51-14.37-5-28.53c-0.64-19.89 8.94-45.17 24.8-41.6s-3.59 26.45-6.32 43.75-4.48 32.6-4.48 32.6z" fill="#fff" opacity=".4" style="transform-origin:464.215px 260.385px"/>
<path class="animable" d="M457.74,296h0a.5.5,0,0,0,.42-.59c-7.19-43.44,12-66,12.18-66.26a.52.52,0,0,0-.09-.72.51.51,0,0,0-.72.08c-.2.25-19.65,23.19-12.38,67.07A.51.51,0,0,0,457.74,296Z" fill="#fff" style="transform-origin:462.985px 262.162px"/>
<path class="animable" d="m468.36 302.62l-6.26-4.35s-2.72-11.18 1.38-27c3.57-13.79 15.26-26.37 22.15-24.95s7.35 6.12 4.77 11.45-20.71 20.16-22.04 44.85z" fill="#c53f3f" style="transform-origin:476.531px 274.415px"/>
<path class="animable" d="m468.36 302.62l-6.26-4.35s-2.72-11.18 1.38-27c3.57-13.79 15.26-26.37 22.15-24.95s7.35 6.12 4.77 11.45-20.71 20.16-22.04 44.85z" fill="#fff" opacity=".65" style="transform-origin:476.531px 274.415px"/>
<path class="animable" d="M465.13,301.11h0a.52.52,0,0,0,.45-.58c-3.74-27.57,19.73-49.61,20-49.83a.51.51,0,0,0-.69-.75c-.25.22-24.1,22.62-20.29,50.72A.5.5,0,0,0,465.13,301.11Z" fill="#fff" style="transform-origin:474.959px 275.47px"/>
</g>
</g>
<g class="animable" style="transform-origin:250.135px 348.043px">
<g class="animable" style="transform-origin:250.135px 348.043px">
<g class="animable" style="transform-origin:250.135px 348.043px">
<path class="animable" d="m83.55 438.46c-92-49.93-92-130.89 0-180.83s241.17-49.93 333.17 0 92 130.9 0 180.83-241.17 49.93-333.17 0z" fill="#c53f3f" style="transform-origin:250.135px 348.043px"/>
<path class="animable" d="m83.55 438.46c-92-49.93-92-130.89 0-180.83s241.17-49.93 333.17 0 92 130.9 0 180.83-241.17 49.93-333.17 0z" fill="#fff" opacity=".8" style="transform-origin:250.135px 348.043px"/>
</g>
</g>
</g>
<g class="animable" style="transform-origin:253.685px 385.82px">
<ellipse class="animable" cx="251.06" cy="397.69" rx="74.18" ry="45.19" fill="#c53f3f" opacity=".15" style="transform-origin:251.06px 397.69px"/>
<ellipse class="animable" cx="113.19" cy="366.69" rx="65.7" ry="37.93" fill="#c53f3f" opacity=".15" style="transform-origin:113.19px 366.69px"/>
<ellipse class="animable" cx="392.56" cy="370.5" rx="67.32" ry="38.87" fill="#c53f3f" opacity=".15" style="transform-origin:392.56px 370.5px"/>
</g>
<g class="animable" style="transform-origin:251.05px 323.193px">
<g class="animable" style="transform-origin:251.05px 323.193px">
<path class="animable" d="M233.15,402a.93.93,0,0,1-.29,0,1,1,0,0,1-.6-.52l-27-58.29a1,1,0,0,1,1-1.38L307.2,357.39a1,1,0,0,1,.82.79,1,1,0,0,1-.48,1l-73.89,42.66A1,1,0,0,1,233.15,402Zm-25.38-58,25.82,55.63,70.55-40.73Z" fill="#f0f0f0" style="transform-origin:256.607px 371.909px"/>
<path class="animable" d="M315.3,387.83a1.42,1.42,0,0,1-1.36-1L286.13,293a1.42,1.42,0,0,1,2.72-.8L316.65,386a1.41,1.41,0,0,1-.95,1.76A1.39,1.39,0,0,1,315.3,387.83Z" fill="#f5f5f5" style="transform-origin:301.402px 339.545px"/>
<path class="animable" d="M200.06,370a1.24,1.24,0,0,1-.33,0,1.41,1.41,0,0,1-1-1.7L219,281.91a1.41,1.41,0,1,1,2.75.65l-20.33,86.35A1.41,1.41,0,0,1,200.06,370Z" fill="#f5f5f5" style="transform-origin:210.238px 325.417px"/>
<path class="animable" d="M313.94,386.81a1.42,1.42,0,0,0,1.36,1,1.39,1.39,0,0,0,.4-.06,1.41,1.41,0,0,0,.95-1.76l-2.18-7.38h0s.17.59-1.13,1-1.6-.21-1.6-.21Z" fill="#37474f" style="transform-origin:314.225px 383.21px"/>
<path class="animable" d="M203.08,361.92s-.12.51-1.52.14-1.17-1-1.17-1h0l-1.71,7.24a1.41,1.41,0,0,0,1,1.7,1.24,1.24,0,0,0,.33,0,1.41,1.41,0,0,0,1.37-1.09l1.65-7Z" fill="#37474f" style="transform-origin:200.859px 365.536px"/>
<path class="animable" d="m288.87 294.22c0-5.93-3.92-11.86-11.76-16.39-15.68-9.05-41.09-9.05-56.77 0-7.84 4.53-11.76 10.46-11.76 16.39v8.14c0 5.94 3.92 11.87 11.76 16.39 15.68 9.05 41.09 9.05 56.77 0 7.84-4.52 11.76-10.46 11.76-16.39z" fill="#c53f3f" style="transform-origin:248.725px 298.29px"/>
<path class="animable" d="m288.87 294.22c0-5.93-3.92-11.86-11.76-16.39-15.68-9.05-41.09-9.05-56.77 0-7.84 4.53-11.76 10.46-11.76 16.39v8.14c0 5.94 3.92 11.87 11.76 16.39 15.68 9.05 41.09 9.05 56.77 0 7.84-4.52 11.76-10.46 11.76-16.39z" opacity=".25" style="transform-origin:248.725px 298.29px"/>
<path class="animable" d="m220.34 310.61c-7.84-4.53-11.76-10.46-11.76-16.39s3.92-11.86 11.76-16.39c15.68-9.05 41.09-9.05 56.77 0 7.84 4.53 11.76 10.46 11.76 16.39s-3.92 11.86-11.76 16.39c-15.68 9.05-41.11 9.05-56.77 0z" fill="#c53f3f" style="transform-origin:248.725px 294.22px"/>
<path class="animable" d="m220.34 310.61c-7.84-4.53-11.76-10.46-11.76-16.39s3.92-11.86 11.76-16.39c15.68-9.05 41.09-9.05 56.77 0 7.84 4.53 11.76 10.46 11.76 16.39s-3.92 11.86-11.76 16.39c-15.68 9.05-41.11 9.05-56.77 0z" opacity=".45" style="transform-origin:248.725px 294.22px"/>
<path class="animable" d="M284.29,221.21a1,1,0,0,1-.82-.47.94.94,0,0,1,.35-1.29l10.39-6a.93.93,0,0,1,1.29.34.94.94,0,0,1-.34,1.29l-10.4,6A.9.9,0,0,1,284.29,221.21Z" fill="#455a64" style="transform-origin:289.486px 217.263px"/>
<path class="animable" d="M296.32,210.44h0a1.9,1.9,0,0,0-1.92.19,6,6,0,0,0-2.71,4.69,1.91,1.91,0,0,0,.8,1.76h0l27.1,15.65,3.83-6.64Z" fill="#c53f3f" style="transform-origin:307.55px 221.497px"/>
<path class="animable" d="M296.32,210.44h0a1.9,1.9,0,0,0-1.92.19,6,6,0,0,0-2.71,4.69,1.91,1.91,0,0,0,.8,1.76h0l27.1,15.65,3.83-6.64Z" fill="#fff" opacity=".35" style="transform-origin:307.55px 221.497px"/>
<path class="animable" d="M321.5,226.28c1.49-.87,2.71-.17,2.71,1.56a6,6,0,0,1-2.71,4.7c-1.5.86-2.71.16-2.71-1.57A6,6,0,0,1,321.5,226.28Z" fill="#c53f3f" style="transform-origin:321.5px 229.407px"/>
<path class="animable" d="M311.11,236.68a.94.94,0,0,1-.47-1.76l10.39-6a.95.95,0,0,1,.94,1.64l-10.39,6A1,1,0,0,1,311.11,236.68Z" fill="#455a64" style="transform-origin:316.263px 232.759px"/>
<path class="animable" d="m182.1 248.35a66.63 66.63 0 0 0 133.25 0z" fill="#263238" style="transform-origin:248.725px 281.257px"/>
<path class="animable" d="m201.56 275.58c-26-15-26-39.42 0-54.46s68.28-15 94.33 0 26.05 39.42 0 54.46-68.28 15.04-94.33 0z" style="transform-origin:248.744px 248.357px"/>
<path class="animable" d="m188.65 265.08a47.88 47.88 0 0 0 12.91 10.5c26.05 15 68.28 15 94.33 0a47.88 47.88 0 0 0 12.91 -10.5c-0.13-8.78-6-17.53-17.58-24.22-23.47-13.55-61.52-13.55-85 0-11.58 6.69-17.44 15.44-17.57 24.22z" fill="#37474f" style="transform-origin:248.725px 258.764px"/>
<path class="animable" d="M293.08,222.19c-24.45-14.12-64.25-14.12-88.71,0-12,6.95-18.65,16.23-18.65,26.16s6.62,19.21,18.65,26.15c12.23,7.06,28.29,10.59,44.36,10.59s32.13-3.53,44.35-10.59c12-6.94,18.65-16.23,18.65-26.15S305.11,229.14,293.08,222.19Zm16.34,22.1-25.89-14.95,9.07-5.23C302.05,229.68,307.88,236.72,309.42,244.29Zm-27.78-16-25.12-14.51c12.42.91,24.43,4,34.17,9.28Zm-29.28-14.73,27.39,15.81-9.08,5.25-35.15-20.3A106.17,106.17,0,0,1,252.36,213.53ZM261.58,242l9.09-5.24L307.45,258a29.42,29.42,0,0,1-5.41,7.36Zm-1.88-1.09-40.19-23.2a91.56,91.56,0,0,1,13-3l36.29,21Zm-23.83,13.76-9.09,5.25L190,238.69a29.29,29.29,0,0,1,5.41-7.37Zm1.89,1.09L278,279a90.52,90.52,0,0,1-13,3l-36.3-21Zm1.88-1.09,9.09-5.24,42,24.22a68.44,68.44,0,0,1-10.34,4.52Zm-1.88-1.09L196.82,230a48.47,48.47,0,0,1,8-5.85l42,24.24Zm-31-30.56a70.51,70.51,0,0,1,10.34-4.52L257.81,242l-9.08,5.25Zm-17.55,17.38L224.9,261l-9.09,5.24L187.68,250c-.05-.56-.08-1.11-.08-1.67A20.94,20.94,0,0,1,189.21,240.41Zm-1.18,12,25.9,15-9.08,5.24C195.4,267,189.57,260,188,252.4Zm27.78,16,25.12,14.5c-12.41-.91-24.42-4-34.17-9.28Zm29.28,14.73L217.7,267.35l9.08-5.25,35.16,20.3A106.29,106.29,0,0,1,245.09,283.17Zm47.51-10.58-42-24.24,9.09-5.25,40.93,23.63A47.68,47.68,0,0,1,292.6,272.59Zm15.64-16.31-35.69-20.6,9.09-5.25,28.14,16.25c0,.55.07,1.11.07,1.67A20.89,20.89,0,0,1,308.24,256.28Z" fill="#455a64" style="transform-origin:248.725px 248.345px"/>
<path class="animable" d="M180.89,280.91a.94.94,0,0,1-.47-1.76l10.4-6a.95.95,0,0,1,.94,1.64l-10.4,6A.9.9,0,0,1,180.89,280.91Z" fill="#455a64" style="transform-origin:186.048px 276.989px"/>
<path class="animable" d="M182.53,276.14h0a1.89,1.89,0,0,0-1.92.18,6,6,0,0,0-2.71,4.69,1.91,1.91,0,0,0,.8,1.76h0l27.1,15.65,3.83-6.63Z" fill="#c53f3f" style="transform-origin:193.76px 287.189px"/>
<path class="animable" d="M182.53,276.14h0a1.89,1.89,0,0,0-1.92.18,6,6,0,0,0-2.71,4.69,1.91,1.91,0,0,0,.8,1.76h0l27.1,15.65,3.83-6.63Z" fill="#fff" opacity=".35" style="transform-origin:193.76px 287.189px"/>
<path class="animable" d="M207.7,292c1.5-.86,2.71-.16,2.71,1.57a6,6,0,0,1-2.71,4.69c-1.5.86-2.71.16-2.71-1.57A6,6,0,0,1,207.7,292Z" fill="#c53f3f" style="transform-origin:207.7px 295.13px"/>
<path class="animable" d="M207.7,296.39a1,1,0,0,1-.82-.47,1,1,0,0,1,.35-1.29l10.38-6a.94.94,0,0,1,.95,1.63l-10.39,6A.9.9,0,0,1,207.7,296.39Z" fill="#455a64" style="transform-origin:212.9px 292.446px"/>
<circle class="animable" cx="238.37" cy="320.79" r="2.94" fill="#37474f" style="transform-origin:238.37px 320.79px"/>
<path class="animable" d="M230.94,436.53h-.1a1.41,1.41,0,0,1-1.32-1.5L237,320.89a1.43,1.43,0,0,1,1.51-1.32,1.41,1.41,0,0,1,1.32,1.5l-7.43,114.14A1.42,1.42,0,0,1,230.94,436.53Z" fill="#f5f5f5" style="transform-origin:234.675px 378.049px"/>
<path class="animable" d="m231.37 428.05c-1.43-0.14-1.35-0.71-1.35-0.71l-0.5 7.69a1.41 1.41 0 0 0 1.32 1.5h0.1a1.42 1.42 0 0 0 1.41 -1.32l0.49-7.64s-0.04 0.62-1.47 0.48z" fill="#37474f" style="transform-origin:231.178px 431.935px"/>
</g>
</g>
<g class="animable" style="transform-origin:247.029px 246.078px">
<g class="animable" style="transform-origin:266.445px 241.863px">
<path class="animable" d="M301,242.9c0-7.71-10.38-15.48-22.55-19.28a95.28,95.28,0,0,0-30.94-4.44c-13.78,0-15.57,4.94-15.57,8.88v7c0,3.93,5.39,6.63,10.18,8.88A32,32,0,0,1,254.24,255c2.6,4.12,9.19,9.57,20.57,9.57S301,258.78,301,249.9Z" fill="#e6e6e6" style="transform-origin:266.47px 241.863px"/>
<path class="animable" d="m247.46 219.18c-13.78 0-15.57 4.94-15.57 8.88v7c0 3.93 5.39 6.63 10.18 8.88a32 32 0 0 1 12.17 11.06v-35.68c-2.24-0.1-4.49-0.14-6.78-0.14z" opacity=".1" style="transform-origin:243.065px 237.09px"/>
<path class="animable" d="m274.81 257.12c-10.53 0-17.32-4.82-20.16-9.34-2.44-3.87-7.21-8.85-12.38-11.27-5-2.35-9.91-4.94-9.91-8.45s1.57-8.41 15.1-8.41c10.28 0 19 0.74 30.8 4.42 12.88 4 22.22 11.94 22.22 18.83 0 8.81-14.95 14.22-25.67 14.22z" fill="#c53f3f" style="transform-origin:266.42px 238.385px"/>
<path class="animable" d="m274.81 257.12c-10.53 0-17.32-4.82-20.16-9.34-2.44-3.87-7.21-8.85-12.38-11.27-5-2.35-9.91-4.94-9.91-8.45s1.57-8.41 15.1-8.41c10.28 0 19 0.74 30.8 4.42 12.88 4 22.22 11.94 22.22 18.83 0 8.81-14.95 14.22-25.67 14.22z" fill="#fff" opacity=".3" style="transform-origin:266.42px 238.385px"/>
<path class="animable" d="M247.46,220.13c10.24,0,18.94.73,30.66,4.39,12.68,4,21.89,11.69,21.89,18.38,0,7.75-13.55,13.75-25.2,13.75-10.34,0-17-4.71-19.76-9.12-2.47-3.93-7.32-9-12.58-11.45-4.88-2.29-9.64-4.79-9.64-8,0-2.17,0-7.93,14.63-7.93m0-.95c-13.78,0-15.57,4.94-15.57,8.88s5.39,6.63,10.18,8.87A32.1,32.1,0,0,1,254.24,248c2.6,4.12,9.19,9.57,20.57,9.57S301,251.78,301,242.9c0-7.71-10.38-15.48-22.55-19.28a95.28,95.28,0,0,0-30.94-4.44Z" fill="#fafafa" style="transform-origin:266.445px 238.363px"/>
<path class="animable" d="M287.18,227.71a45.27,45.27,0,0,0-7.56-2.69,4.51,4.51,0,0,1,2.61,5.15,36.5,36.5,0,0,1-1.93,7.12c-.8,1.9-1.18,2.18-2.29,2.17h0a9.3,9.3,0,0,0-1.75,0h0a6.35,6.35,0,0,1-3.15-.78,46.68,46.68,0,0,0-7.38-4c-4.37-1.9-9.3-4-11.35-5.82s-2.7-3.4-2.7-5,1.46-3.66,3-3.66c0,0-.87-.54-5.2-.61a24.87,24.87,0,0,0-6.9.7c2.11-.18,5.1,1.9,6.07,4s1.52,4.61,6.41,6.8S270,237.83,271.27,239s.92,2.11.81,2.25h0a2.1,2.1,0,0,0-.16,2.81h0a2.13,2.13,0,0,1,.21,2.83c-.82,1.08-2.75,4.08-5.52,4.93s-6.15,1-7.82-.18c0,0,.85,1.59,5,3.26a21,21,0,0,0,7.61,1.55c-3.34-.77-3.69-2.41-2.94-3.48s3.33-3.37,4.07-4.71,2.14-2.41,3.1-2.31h0a9,9,0,0,0,5.69-.84c2.07-1.19,2.23-3.06.52-4.38h0c-.88-.68-1.07-1.46-.64-3s2.81-5.46,5.5-6.41,7.05,1.11,8.39,2.45A27.62,27.62,0,0,0,287.18,227.71Z" fill="#f5f5f5" style="transform-origin:268.835px 238.011px"/>
<path class="animable" d="m280.05 241.16c1.55 0.89 1.55 2.34 0 3.23a6.19 6.19 0 0 1 -5.59 0c-1.55-0.89-1.55-2.34 0-3.23a6.12 6.12 0 0 1 5.59 0z" opacity=".1" style="transform-origin:277.255px 242.771px"/>
</g>
<g class="animable" style="transform-origin:225.314px 257.216px">
<path class="animable" d="M252,271.61a6.05,6.05,0,0,0-.38-12.08c-3.52-.1-10.74-2.13-17.75-5.82a50,50,0,0,1-12-8.75,6.05,6.05,0,1,0-9.13,7.95c2.68,3.07,8.86,8,15.51,11.51,8,4.21,17,7,23.05,7.21A5.77,5.77,0,0,0,252,271.61Z" fill="#c53f3f" style="transform-origin:234.407px 257.254px"/>
<g class="animable" opacity=".3" style="transform-origin:234.407px 257.254px">
<path class="animable" d="M252,271.61a6.05,6.05,0,0,0-.38-12.08c-3.52-.1-10.74-2.13-17.75-5.82a50,50,0,0,1-12-8.75,6.05,6.05,0,1,0-9.13,7.95c2.68,3.07,8.86,8,15.51,11.51,8,4.21,17,7,23.05,7.21A5.77,5.77,0,0,0,252,271.61Z" fill="#fff" style="transform-origin:234.407px 257.254px"/>
</g>
<path class="animable" d="M257.51,265.75s-2.14,3.68-10.7,2.34a43.36,43.36,0,0,1-6.95-1.8c-.69-5.13-4.88-6.09-9.37-7.53a57.46,57.46,0,0,1-11-4.64c-5.72-3.68-7.26-5.74-5.8-10-.12.09-.23.17-.34.27a6,6,0,0,0-.59,8.54c2.68,3.07,8.86,8,15.51,11.51,8,4.21,17,7,23.05,7.21a5.77,5.77,0,0,0,.72,0A6.07,6.07,0,0,0,257.51,265.75Z" fill="#c53f3f" style="transform-origin:234.38px 257.891px"/>
<path class="animable" d="M229.19,253.87a11.73,11.73,0,0,1,2.17-1.12l.49-.17-1.29-.78-.21.08a8.77,8.77,0,0,0-2,1.25,5.27,5.27,0,0,0-2.12,3.73c0,.06.07.22.15.13.45-.51.75-1.15,1.18-1.67A8,8,0,0,1,229.19,253.87Z" fill="#c53f3f" style="transform-origin:229.04px 254.408px"/>
<path class="animable" d="M219.61,252.41c.49-.48.82-1.1,1.3-1.6a7.73,7.73,0,0,1,1.72-1.34,10.69,10.69,0,0,1,2.25-1l.71-.19q-.61-.48-1.14-.93c-.18.06-.35.11-.52.18a8.67,8.67,0,0,0-2.08,1.11,5.3,5.3,0,0,0-2.38,3.6S219.52,252.49,219.61,252.41Z" fill="#c53f3f" style="transform-origin:222.53px 249.888px"/>
<path class="animable" d="M233.67,260.61c0,.06.08.22.16.12.41-.54.66-1.19,1.07-1.75a7.4,7.4,0,0,1,1.51-1.55,11.09,11.09,0,0,1,2.08-1.26l.32-.14-1.44-.62a8.67,8.67,0,0,0-1.84,1.34A5.25,5.25,0,0,0,233.67,260.61Z" fill="#c53f3f" style="transform-origin:236.24px 258.086px"/>
<path class="animable" d="M244.91,258.22a9.12,9.12,0,0,0-1.6,1.37,5.26,5.26,0,0,0-1.6,4c0,.06.09.21.16.11.38-.57.59-1.24.95-1.83a7.76,7.76,0,0,1,1.42-1.66,10.72,10.72,0,0,1,2-1.4l.27-.14C246,258.53,245.46,258.39,244.91,258.22Z" fill="#c53f3f" style="transform-origin:244.108px 260.977px"/>
<path class="animable" d="M231.67,273a6.06,6.06,0,0,0,.7-12.07c-3.49-.41-10.51-3.08-17.16-7.37a49.76,49.76,0,0,1-11.2-9.79,6.06,6.06,0,0,0-9.8,7.12c2.39,3.29,8.12,8.76,14.43,12.84,7.59,4.9,16.35,8.52,22.32,9.23C231.2,273,231.44,273,231.67,273Z" fill="#c53f3f" style="transform-origin:215.412px 257.216px"/>
<g class="animable" opacity=".3" style="transform-origin:215.412px 257.216px">
<path class="animable" d="M231.67,273a6.06,6.06,0,0,0,.7-12.07c-3.49-.41-10.51-3.08-17.16-7.37a49.76,49.76,0,0,1-11.2-9.79,6.06,6.06,0,0,0-9.8,7.12c2.39,3.29,8.12,8.76,14.43,12.84,7.59,4.9,16.35,8.52,22.32,9.23C231.2,273,231.44,273,231.67,273Z" fill="#fff" style="transform-origin:215.412px 257.216px"/>
</g>
<path class="animable" d="m237.68 267.63s-2.46 3.47-10.86 1.38-21.82-10.01-26.15-14.82-6.59-7.89-4.76-12c-0.12 0.08-0.24 0.15-0.36 0.24a6.07 6.07 0 0 0 -1.34 8.46c2.39 3.29 8.12 8.76 14.43 12.84 7.59 4.9 16.35 8.52 22.32 9.23h0.71a6.06 6.06 0 0 0 6.01 -5.33z" fill="#c53f3f" style="transform-origin:215.369px 257.575px"/>
<path class="animable" d="M210.53,253.28a11.4,11.4,0,0,1,2.26-.92c.17-.05.34-.08.51-.12l-1.22-.9-.22.06a8.63,8.63,0,0,0-2.09,1.08,5.25,5.25,0,0,0-2.44,3.52c0,.06,0,.22.13.14.5-.46.85-1.07,1.33-1.56A7.6,7.6,0,0,1,210.53,253.28Z" fill="#c53f3f" style="transform-origin:210.315px 253.751px"/>
<path class="animable" d="M201.11,251c.53-.43.93-1,1.44-1.47a7.9,7.9,0,0,1,1.84-1.18,11.08,11.08,0,0,1,2.32-.77l.72-.13-1.05-1-.53.13a8.17,8.17,0,0,0-2.17.93,5.28,5.28,0,0,0-2.69,3.36C201,250.88,201,251.05,201.11,251Z" fill="#c53f3f" style="transform-origin:204.21px 248.73px"/>
<path class="animable" d="M214.4,260.39c0,.06.06.23.14.14.46-.5.77-1.13,1.22-1.65a7.43,7.43,0,0,1,1.65-1.41,10.5,10.5,0,0,1,2.18-1.07l.33-.11-1.38-.75a8.56,8.56,0,0,0-1.95,1.17A5.27,5.27,0,0,0,214.4,260.39Z" fill="#c53f3f" style="transform-origin:217.16px 258.048px"/>
<path class="animable" d="M225.8,259a9,9,0,0,0-1.72,1.22,5.35,5.35,0,0,0-2,3.84c0,.06.08.22.16.13.43-.53.69-1.19,1.11-1.74a8,8,0,0,1,1.55-1.53,11.44,11.44,0,0,1,2.12-1.22l.29-.11Z" fill="#c53f3f" style="transform-origin:224.695px 261.608px"/>
</g>
</g>
<g class="animable" style="transform-origin:370.972px 216.664px">
<g class="animable" style="transform-origin:370.972px 216.664px">
<g class="animable" style="transform-origin:389.123px 284.413px">
<path class="animable" d="m367.47 336.08c-0.2-4.94-3.05-59.56-3.05-59.56l25 18c-3.9 28.5-5.55 41.61-5.82 46.36a4 4 0 0 1 0.08 1.22c-0.24 5.64-7.06 8.44-12.43 12a98.16 98.16 0 0 1 -14.47 8.27c-3.87 1.68-11.58 1.58-12.44-0.77 6.54-4.39 14.09-9.18 19.35-14.27 2.55-2.39 4.03-5.33 3.78-11.25z" fill="#b16668" style="transform-origin:366.88px 320.017px"/>
<path class="animable" d="M336.75,367.4c-.3,0-.89,3.39.71,4.9,1.84,1.74,7.34,4.69,14.78,4s11.54-2.89,14.6-5.31,7.35-5.83,10.73-6.46c3.14-.59,6.57-1.9,7.6-2.84s1.06-5.3,1.06-5.3Z" fill="#263238" style="transform-origin:361.311px 366.396px"/>
<path class="animable" d="M383.72,339.52s.81,0,1,1c.18,1.2.39,4.71.81,6.7.57,2.76,1,8.42.54,10.63s-5.63,3.58-8.92,4.72A41.75,41.75,0,0,0,366.36,369c-3.59,2.8-11,5.47-15.85,5.36-7.37-.15-12.06-2.35-13.43-5.1-1.7-3.4-1.05-5.75,7.57-9.43a100,100,0,0,0,9.61-5.3,28.29,28.29,0,0,0,11.15-12.85,3.27,3.27,0,0,1,1.29-1.75,2.72,2.72,0,0,1,1.65-.1c1.4.26,5.46.92,6.73,1.59,1.11.59,2.7,1.29,2.62,2.77a5.19,5.19,0,0,1-.38,1.49c-.11.3-.21.7.05.89s.57,0,.8-.2a22.75,22.75,0,0,0,2.38-2.7,8.45,8.45,0,0,1,1.4-1.34,14.64,14.64,0,0,0,1.48-.91S383.67,340.21,383.72,339.52Z" fill="#455a64" style="transform-origin:361.296px 356.942px"/>
<path class="animable" d="m344.41 359.77c10.59 1.13 15.09 8.13 13.74 13.23a25 25 0 0 1 -7.64 1.34c-7.37-0.15-12.37-2.36-13.74-5.11-1.6-3.23-0.04-6.81 7.64-9.46z" fill="#fafafa" style="transform-origin:347.293px 367.055px"/>
<path class="animable" d="M358.89,361.31a.52.52,0,0,0,.34-.1.55.55,0,0,0,.1-.75,12.43,12.43,0,0,0-9.5-4.21.53.53,0,0,0,.07,1.06,11.5,11.5,0,0,1,8.6,3.8A.47.47,0,0,0,358.89,361.31Z" fill="#f0f0f0" style="transform-origin:354.386px 358.78px"/>
<path class="animable" d="M363.19,358.72a.53.53,0,0,0,.44-.85,12.36,12.36,0,0,0-9.5-4.22.53.53,0,0,0-.48.57.52.52,0,0,0,.56.49,11.46,11.46,0,0,1,8.59,3.8A.53.53,0,0,0,363.19,358.72Z" fill="#f0f0f0" style="transform-origin:358.693px 356.184px"/>
<path class="animable" d="M367.44,355.39a.52.52,0,0,0,.34-.1.55.55,0,0,0,.1-.75,12.41,12.41,0,0,0-9.5-4.21.53.53,0,0,0,.08,1.06c3.62-.27,7.47,2.29,8.59,3.79A.47.47,0,0,0,367.44,355.39Z" fill="#f0f0f0" style="transform-origin:362.937px 352.86px"/>
<path class="animable" d="M371.64,352.05a.45.45,0,0,0,.33-.1.54.54,0,0,0,.11-.74c-1.94-2.7-6.49-4.59-10.38-4.3a.53.53,0,0,0,.07,1.06c3.5-.26,7.75,1.48,9.47,3.87A.49.49,0,0,0,371.64,352.05Z" fill="#f0f0f0" style="transform-origin:366.692px 349.466px"/>
<path class="animable" d="M410.31,297.4l24.68-5c.84,14.93.45,39.3.43,53.09,0,2.65,1.74,20.46,1.05,25.95-1,8.25-12.07,7.86-13.05,3s-2.06-25.53-2.27-27.68a12.42,12.42,0,0,0-.21-1.92C418.21,332.3,410.48,298.11,410.31,297.4Z" fill="#b16668" style="transform-origin:423.471px 335.153px"/>
<path class="animable" d="M419.57,378.13c.16,4.79.9,8,2.74,10.84s5.44,3.83,9.15,3.09,8.5-2.83,9.69-6.93,1.06-6.95.37-11.41Z" fill="#263238" style="transform-origin:430.806px 383.008px"/>
<path class="animable" d="M435.42,344c1.51.14,1.67,6.39,2.34,12.85.72,6.93,3,9.84,3.61,15.52.75,6.49.27,9.37-2.42,13.22S427,393,422.74,387.32c-3.51-4.65-3.5-9.71-2.95-16.16a143.59,143.59,0,0,0,.86-16.43c-.14-4.85-1-9.35.3-9.86.08.71.15,1.62.23,2.32.07.54.14,3.16,1,3.21a9.32,9.32,0,0,0,.07-1.83,2,2,0,0,1,.47-1.55,5.77,5.77,0,0,1,2.37-.82c1.5-.23,3-.42,4.53-.51.76,0,1.52-.06,2.28,0a6.45,6.45,0,0,1,1.91.29,1.24,1.24,0,0,1,.8.67,1.85,1.85,0,0,1,.06.74,4.35,4.35,0,0,0,.15,1.34c0,.19.19.42.41.38a.36.36,0,0,0,.25-.38c0-.78-.06-1.35-.07-2.26,0-.42,0-.82,0-1.24S435.44,344.39,435.42,344Z" fill="#455a64" style="transform-origin:430.605px 367.142px"/>
<path class="animable" d="m441.67 376.1c0.14 4-0.21 6.76-2.32 9.77-2.7 3.85-12.65 7.47-17 1.77-2.14-2.84-2.63-6.15-2.83-9.52 2.88-4.25 18.04-5.8 22.15-2.02z" fill="#fafafa" style="transform-origin:430.609px 382.277px"/>
<path class="animable" d="M423.69,371.18a.41.41,0,0,0,.19,0,24.92,24.92,0,0,1,13.12-.88.59.59,0,0,0,.69-.36.49.49,0,0,0-.4-.6,25.81,25.81,0,0,0-13.87.93.48.48,0,0,0-.28.66A.55.55,0,0,0,423.69,371.18Z" fill="#f0f0f0" style="transform-origin:430.399px 369.993px"/>
<path class="animable" d="M436.79,365.43a.57.57,0,0,0,.49-.32.48.48,0,0,0-.33-.64c-6.74-2.19-13.56.7-13.84.82a.47.47,0,0,0-.26.67.6.6,0,0,0,.75.22c.06,0,6.69-2.83,12.95-.78A.66.66,0,0,0,436.79,365.43Z" fill="#f0f0f0" style="transform-origin:430.053px 364.943px"/>
<path class="animable" d="M436.55,360.88a.58.58,0,0,0,.48-.32.48.48,0,0,0-.32-.64,19.5,19.5,0,0,0-14.12.78.47.47,0,0,0-.21.68.6.6,0,0,0,.77.18,18.6,18.6,0,0,1,13.15-.72A.73.73,0,0,0,436.55,360.88Z" fill="#f0f0f0" style="transform-origin:429.686px 360.293px"/>
<path class="animable" d="M436.25,355.76a.55.55,0,0,0,.48-.31.48.48,0,0,0-.31-.65c-6.93-2.47-13.93.78-14.22.92a.47.47,0,0,0-.23.67.58.58,0,0,0,.76.2c.07,0,6.83-3.17,13.27-.87A.73.73,0,0,0,436.25,355.76Z" fill="#ebebeb" style="transform-origin:429.338px 355.267px"/>
<path class="animable" d="M427.26,182.45c1.54,28.16,5,80,5,80,.33,3.28,3.33,17.77,3.64,29.59.49,19-.27,36.56-.27,36.56s-10.89,4.65-18.44,1.65c0,0-10-42.93-12.49-55.29-3-14.73-9.4-44.05-9.4-44.05l-5,38.91s1.58,13.86,0,25.31c-1.08,7.8-5.1,33.75-5.1,33.75s-10.05,2.15-18.27-.47c0,0-3.85-55.14-4.33-62.33s-.47-44.19,1.3-89.55Z" fill="#37474f" style="transform-origin:399.197px 253.894px"/>
<path class="animable" d="M366.52,323.27c4.05,3,15,2.81,19.61.39l-1.39,8.16c-3.3,1.91-13,2.28-17.83-1.05Z" fill="#263238" style="transform-origin:376.325px 328.269px"/>
<path class="animable" d="m416 325.4c5.71 2.52 16.52 1 19.9-2.13v8c-2.66 2.66-12.94 3.95-18.38 1.91z" fill="#263238" style="transform-origin:425.95px 328.726px"/>
<path class="animable" d="M395.32,230.87l-4.2-25.22a22.61,22.61,0,0,1-14.12-6s.65,5.81,11.9,9.53l3.85,20.93-2.47,39.71Z" fill="#263238" style="transform-origin:386.16px 234.735px"/>
</g>
<g class="animable" style="transform-origin:370.972px 121.977px">
<g class="animable" style="transform-origin:333.508px 93.9667px">
<path class="animable" d="m330.6 117.17c-3.25-4.48-13-16-15.05-21.59s-3-7-4.31-10.17-0.9-2.66-3.7-5.32a28.69 28.69 0 0 1 -3.8 -3.91 20.32 20.32 0 0 1 -2.39 -4.88c-1.6-0.88-2.6 2.42-2.08 4.7s1.16 4.16 0 7.34-3.94 11.47-3.94 11.47 3.49 3 5.27 4.23 3.34 3.6 5.76 10.52 5.88 15.13 7.48 18.4 4.85 8.56 8.59 11.18c1.77 1.24 3.93 1.81 17.85-3.29 9-3.29 27.81-10.81 27.81-10.81 7.41-6.27 15.88-23.61 13.51-28.18-14.55-0.66-18.39 3.64-25 7-2.57 1.32-6.7 2.86-11.3 5.12-7.3 3.62-14.7 8.19-14.7 8.19z" fill="#b16668" style="transform-origin:338.668px 105.572px"/>
<path class="animable" d="M303.57,90.89a8,8,0,0,1,4.05,4.66c-.56-2.8-1.16-3.68-3.62-5.52Z" fill="#9a4a4d" style="transform-origin:305.595px 92.79px"/>
<path class="animable" d="m307.91 99.63a10 10 0 0 1 -2.52 1.32 3.46 3.46 0 0 1 -3.68 -1 11.15 11.15 0 0 1 1.46 2 1.92 1.92 0 0 0 2 0.23c1.43-0.39 2.74-2.55 2.74-2.55z" fill="#9a4a4d" style="transform-origin:304.81px 100.995px"/>
<path class="animable" d="m301.42 99.7z" fill="#b16668" style="transform-origin:301.42px 99.7px"/>
<path class="animable" d="m291.57 66.21c-0.3 1.43 0.34 2.56 1.36 4.57a6.16 6.16 0 0 1 0 5c-0.42 1.18-3.2 7.62-4.21 8.88a12.86 12.86 0 0 1 -1.8 1.9 4.44 4.44 0 0 0 1.11 2.64c1.09 1.25 3.05 3.05 3.05 3.05s5.16-8.42 5.43-13.84-1.13-7.94-4.94-12.2z" fill="#9a4a4d" style="transform-origin:291.731px 79.23px"/>
<g class="animable" style="transform-origin:298.752px 78.0055px">
<g class="animable" style="transform-origin:298.752px 78.0055px">
<g class="animable" style="transform-origin:298.752px 78.0055px">
<path class="animable" d="M285.1,100.33l8.27-28.76c.55-1.88,3.35-3.83,4.41-4.73,1.4-1.21,2-3.29,2.94-5.75,1.37-3.56,3.72-6.42,4.73-9a1,1,0,0,1-.06-1.05c.31-.57,1.05-.6,1.09-.75a4.13,4.13,0,0,1,2.88.06,4.23,4.23,0,0,1,2.48,1.48c0,.15.56.57.52,1.22a1.52,1.52,0,0,1,0,.21,1.11,1.11,0,0,1-.58.64c-.52,2.72,0,6.39-.77,10.14-.5,2.59-1.12,4.66-.57,6.43.42,1.33,1.76,4.47,1.22,6.35l-8.28,28.76h0c-.32,1.14-1.54,2-3.57,2.37a17.43,17.43,0,0,1-12.91-3.71C285.34,102.85,284.77,101.46,285.1,100.33Z" fill="#37474f" style="transform-origin:298.687px 79.0632px"/>
<path class="animable" d="M306.53,51.92c-.52-.48-.71-1-.6-1.34v0c.26-.13.52-.19.54-.27a4.13,4.13,0,0,1,2.88.06,4.23,4.23,0,0,1,2.48,1.48c0,.09.16.26.31.51v0c-.11.38-.52.68-1.21.8A5.92,5.92,0,0,1,306.53,51.92Z" fill="#263238" style="transform-origin:309.02px 51.6418px"/>
<path class="animable" d="M305,53.12c.17-.35.33-.69.46-1a2.54,2.54,0,0,0,.54.65,6.68,6.68,0,0,0,5,1.43,2.58,2.58,0,0,0,.8-.27c-.07.36-.12.73-.16,1.11l-.06.06a2.57,2.57,0,0,1-.94.34,6.68,6.68,0,0,1-5-1.43A2.33,2.33,0,0,1,305,53.12Z" fill="#263238" style="transform-origin:308.4px 53.8045px"/>
<path class="animable" d="M306.05,50.16a3.13,3.13,0,0,1,1-1.85l0,0,.12-.07.27-.11h0a1.59,1.59,0,0,1,.33-.08,5.41,5.41,0,0,1,4,1.15,2.55,2.55,0,0,1,.23.24h0l0,0a1.53,1.53,0,0,1,.16.22l.07.13,0,0a3.12,3.12,0,0,1-.11,2.12c-.12.39-.53.69-1.22.81a5.92,5.92,0,0,1-4.4-1.27C306.13,51,305.94,50.55,306.05,50.16Z" fill="#37474f" style="transform-origin:309.192px 50.3871px"/>
<path class="animable" d="M311.32,51.13c1.26-.22,1.51-1.1.56-2a5.41,5.41,0,0,0-4-1.15c-1.27.22-1.52,1.09-.57,1.95A5.43,5.43,0,0,0,311.32,51.13Z" fill="#455a64" style="transform-origin:309.595px 49.5521px"/>
<path class="animable" d="M310.82,50.68c.9-.16,1.08-.78.4-1.39a3.85,3.85,0,0,0-2.87-.83c-.9.16-1.08.78-.4,1.39A3.82,3.82,0,0,0,310.82,50.68Z" fill="#263238" style="transform-origin:309.585px 49.5706px"/>
<path class="animable" d="M294.41,71.87l-8.19,28.46c-.25.86.27,1.93,1.47,3a16.1,16.1,0,0,0,11.87,3.41c1.58-.27,2.6-.9,2.84-1.76,0,0,7.37-25.6,8.19-28.47.38-1.32-.43-3.64-.92-5-.11-.33-.21-.62-.28-.86-.51-1.61-.32-2.84.19-5.17.12-.56.24-1.12.35-1.65,0,0,0-.06,0-.09l.06-.32a2.06,2.06,0,0,0-.84-1.47,7.74,7.74,0,0,0-5.78-1.67,2.09,2.09,0,0,0-1.5.83l-.11.26,0,.1c-.2.5-.39,1-.59,1.59-.8,2.23-1.3,3.38-2.58,4.48l-.7.57C296.72,69,294.79,70.55,294.41,71.87Z" fill="#c53f3f" style="transform-origin:298.424px 83.5353px"/>
<path class="animable" d="M294.41,71.87l-8.19,28.46c-.25.86.27,1.93,1.47,3a16.1,16.1,0,0,0,11.87,3.41c1.58-.27,2.6-.9,2.84-1.76,0,0,7.37-25.6,8.19-28.47.38-1.32-.43-3.64-.92-5-.11-.33-.21-.62-.28-.86-.51-1.61-.32-2.84.19-5.17.12-.56.24-1.12.35-1.65,0,0,0-.06,0-.09l.06-.32a2.06,2.06,0,0,0-.84-1.47,7.74,7.74,0,0,0-5.78-1.67,2.09,2.09,0,0,0-1.5.83l-.11.26,0,.1c-.2.5-.39,1-.59,1.59-.8,2.23-1.3,3.38-2.58,4.48l-.7.57C296.72,69,294.79,70.55,294.41,71.87Z" opacity=".2" style="transform-origin:298.424px 83.5353px"/>
<path class="animable" d="M299.24,106.56c3.51-.61,4.21-3,1.56-5.43a15.07,15.07,0,0,0-11.17-3.21c-3.51.61-4.21,3-1.56,5.43A15,15,0,0,0,299.24,106.56Z" opacity=".1" style="transform-origin:294.435px 102.241px"/>
<path class="animable" d="M301.77,61.35a1.85,1.85,0,0,0,.8,1.72,7.8,7.8,0,0,0,5.79,1.67c.88-.16,1.42-.53,1.58-1a1.07,1.07,0,0,0,.06-.32,2.06,2.06,0,0,0-.84-1.47,7.74,7.74,0,0,0-5.78-1.67,2.09,2.09,0,0,0-1.5.83A.85.85,0,0,0,301.77,61.35Z" fill="#c53f3f" style="transform-origin:305.88px 62.5092px"/>
<path class="animable" d="M301.77,61.35a1.85,1.85,0,0,0,.8,1.72,7.8,7.8,0,0,0,5.79,1.67c.88-.16,1.42-.53,1.58-1a1.07,1.07,0,0,0,.06-.32,2.06,2.06,0,0,0-.84-1.47,7.74,7.74,0,0,0-5.78-1.67,2.09,2.09,0,0,0-1.5.83A.85.85,0,0,0,301.77,61.35Z" opacity=".4" style="transform-origin:305.88px 62.5092px"/>
<path class="animable" d="M291.42,106.88a16.19,16.19,0,0,0,2.6.21,9.44,9.44,0,0,0,4-.7,3,3,0,0,0,1.79-1.83s7.73-26.88,8.27-28.77-.2-4.78-.45-6.12c-.44-2.26.72-4.19,1.22-6.78.64-3.3.84-6.17,1.24-8.67a.62.62,0,0,0,.16-1,1.67,1.67,0,0,0-.56-.46,1.07,1.07,0,0,0,.47-1.63c2.34-.08,2.72-1.68.28-2.8a4.69,4.69,0,0,1,1.46.83,2.55,2.55,0,0,1,.23.24h0l0,0a1.53,1.53,0,0,1,.16.22l.07.13,0,0a3.12,3.12,0,0,1-.11,2.12,1.05,1.05,0,0,1-.17.31,1.25,1.25,0,0,1,.26.79,1.52,1.52,0,0,1,0,.21,1.11,1.11,0,0,1-.58.64c-.52,2.72,0,6.39-.77,10.14-.5,2.59-1.12,4.66-.57,6.43.42,1.33,1.76,4.47,1.22,6.35l-8.28,28.76h0c-.32,1.14-1.54,2-3.57,2.37A16.86,16.86,0,0,1,291.42,106.88Z" opacity=".2" style="transform-origin:301.958px 78.1766px"/>
<path class="animable" d="M305.59,51c.12-.12.11.74.83,1.4a7.79,7.79,0,0,0,3.46,1.71,7.92,7.92,0,0,1-3.42-1.26C305.23,51.81,305.36,51.22,305.59,51Z" fill="#fafafa" opacity=".1" style="transform-origin:307.66px 52.5493px"/>
<path class="animable" d="M307.48,48.2a1.86,1.86,0,0,0-1,1.11,2.38,2.38,0,0,0-.31,1.28c.06.32.81,1.31,2.74,1.9-1.25-.83-2.13-1.46-2.25-2.14A2.28,2.28,0,0,1,307.48,48.2Z" fill="#fafafa" opacity=".1" style="transform-origin:307.539px 50.345px"/>
<path class="animable" d="M295.1,72.07l-8.27,28.75c-.18.64.28,1.51,1.27,2.4a13.85,13.85,0,0,0,5.27,2.72c-5.58-2.25-4.6-4.69-3.85-7.32l6.58-22.88c1.57-5.43,3.68-5.28,5.36-7.21s1.77-5.86,3.3-9.05c1-2.13,1.77-3.29,2.36-4.58a8,8,0,0,1-.82-.43c-.38.71-.81,1.43-1.25,2.17a32.14,32.14,0,0,0-2.64,5c-.16.41-.3.8-.45,1.19-.77,2.07-1.43,3.86-2.87,5.1l-.72.58C297.35,69.38,295.44,70.9,295.1,72.07Z" fill="#fafafa" opacity=".2" style="transform-origin:296.956px 80.205px"/>
</g>
</g>
</g>
<path class="animable" d="M293.1,72.54l.64.28.09,0a10.76,10.76,0,0,1,2.85,1.68c.31.29.58.66.9,1a4.32,4.32,0,0,1,.93,1.07,17,17,0,0,1,1.25,3.48c.24.75.9,1.85.11,2.49a4.59,4.59,0,0,1-2.18.65c0,.62.32,1.18.35,1.78a2.91,2.91,0,0,1-.35,1.5,2.56,2.56,0,0,1-3.3.49A2.84,2.84,0,0,1,293,89.35a2.68,2.68,0,0,1-2.08.17,9.05,9.05,0,0,1-2.36-1.11C290.35,82.1,292.35,75.14,293.1,72.54Z" opacity=".2" style="transform-origin:294.403px 81.0973px"/>
<path class="animable" d="M294.76,69.45a24.06,24.06,0,0,1,2.44-2.14c.39,1.57.54,3.38-1.2,3.73a1.07,1.07,0,0,1-.82-.16A6.88,6.88,0,0,0,294.76,69.45Z" opacity=".2" style="transform-origin:296.105px 69.1866px"/>
<path class="animable" d="M291.72,65.71c-.58,1.51.17,2.31.84,3.45s2.61,2.54,3.53,1.83.89-2.39.05-4.26-1.52-2.65-2.18-2.63A3.07,3.07,0,0,0,291.72,65.71Z" fill="#b16668" style="transform-origin:294.144px 67.641px"/>
<path class="animable" d="M296.87,84.56a1.66,1.66,0,0,1-1.64,1.32,2.79,2.79,0,0,1-1.6-.34c.05,1,0,2.14-1,2.69-1.89,1-3.78-2.36-5.57-1a11.2,11.2,0,0,1-.3-1.51,4.26,4.26,0,0,1,0-1.07,6.22,6.22,0,0,1,.25-.84l.15-.35a7,7,0,0,1,.79-1.14A1.79,1.79,0,0,0,288,81a2.78,2.78,0,0,1,.22-1.61c.46-1,1.57-1.66,1.43-2.82-.07-.58-.4-.93-.51-1.47a4.15,4.15,0,0,1,.69-3.35c.63-.78,2.4-.09,3.17.16A17.4,17.4,0,0,1,295.25,73a5.27,5.27,0,0,1,2.23,1.66,17.85,17.85,0,0,1,1.58,4.24A1.77,1.77,0,0,1,299,80.7a2.2,2.2,0,0,1-1.62.85,3.33,3.33,0,0,1-1.32-.32C296.56,82.57,297.14,83.44,296.87,84.56Z" fill="#b16668" style="transform-origin:293.002px 79.9041px"/>
<path class="animable" d="M296.06,81.23a17.8,17.8,0,0,1-1-1.8,18.69,18.69,0,0,0-1-1.77,2.28,2.28,0,0,0-1.49-1.1,5.43,5.43,0,0,0-2,0,3.93,3.93,0,0,1,2.07-.33,2.27,2.27,0,0,1,1,.38,3,3,0,0,1,.75.8,10.21,10.21,0,0,1,.92,1.88C295.59,79.94,295.84,80.58,296.06,81.23Z" fill="#9a4a4d" style="transform-origin:293.315px 78.7177px"/>
<path class="animable" d="M293.63,85.54c-.32-.46-.59-.93-.88-1.39a4,4,0,0,0-1-1.19,3.52,3.52,0,0,0-1.41-.57c-.52-.13-1.06-.23-1.6-.35a7.68,7.68,0,0,1,1.66,0,2.93,2.93,0,0,1,1.63.57,3.2,3.2,0,0,1,.61.61,4,4,0,0,1,.42.75A10.7,10.7,0,0,1,293.63,85.54Z" fill="#9a4a4d" style="transform-origin:291.185px 83.7675px"/>
<path class="animable" d="M308.87,73.87c.38.28.3,2,.83,4.15.43,1.72,2.31,3.74,3,5.29,1.65,3.5,1.31,6.72,2.82,12.27L307,93.14a17.82,17.82,0,0,0-.12-6.42c-.19-1.15-.67-2.78-.86-3.59a20.76,20.76,0,0,1-.73-5.35C305.32,74.79,307.39,72.8,308.87,73.87Z" fill="#b16668" style="transform-origin:310.405px 84.5786px"/>
</g>
<g class="animable" style="transform-origin:397.158px 115.296px">
<path class="animable" d="m364.69 118.21c1.34-10.94 9-20.1 15.29-21.13a95.85 95.85 0 0 1 23.19 -0.33c12.26 1.4 26.31 7.81 26.31 7.81 2.83 6.49 1.22 31.3-1 41.75-3.21 15.33-2.24 23.39-1.23 36.77-13.47 8.54-45.09 10-63.51-4-0.51-12.96-0.88-45.91 0.95-60.87z" fill="#455a64" style="transform-origin:397.158px 142.88px"/>
<path class="animable" d="M375.83,63.23c-2.22-5.58.36-12.8,3.34-16.14,4.3-4.82,10.82-6.75,20.53-5.84,7.38.7,14.55,4,15.69,11.64,5.89,2,4.9,11.7,3.28,16-3.28,8.64-9.42,16.05-9.67,20.52Z" fill="#263238" style="transform-origin:397.455px 65.2208px"/>
<path class="animable" d="M375.17,83.78c1,4.26,3.38,7.43,7.26,8.16a32.49,32.49,0,0,0,6.16.24l-.22,5.66c-6.86,9.06,13.37,10.59,20.71.67l.48-17.34s2.3,2.78,6.32.35a8.6,8.6,0,0,0,3-10.43c-1.82-4.18-5.78-2.6-7-1.39s-2.72,3.52-3.71,3.16a3.64,3.64,0,0,1-2.34-2.55,22.17,22.17,0,0,1-1-8A9,9,0,0,1,402.1,60c-1.61-1.92-1.68-4.16-1.69-6.19-8.34-2.91-19.12-2.18-22.72.42-2.13,3.49-2.47,11.74-2.95,16.49A38.94,38.94,0,0,0,375.17,83.78Z" fill="#b16668" style="transform-origin:396.975px 78.6239px"/>
<path class="animable" d="M388.59,92.17c4.32-.1,13.06-1.84,15.45-4.17s3.53-7.23,3.53-7.23-.55,6.21-2.42,8.9S398.72,93.41,396,94a67.24,67.24,0,0,1-7.44.92Z" fill="#9a4a4d" style="transform-origin:398.065px 87.845px"/>
<path class="animable" d="M392.09,69.54a1.8,1.8,0,0,0,1.71,1.9,1.85,1.85,0,1,0-1.71-1.9Z" fill="#263238" style="transform-origin:393.938px 69.5952px"/>
<path class="animable" d="M378,64.75l4.35-.56a2.1,2.1,0,0,0-2.38-1.92A2.29,2.29,0,0,0,378,64.75Z" fill="#263238" style="transform-origin:380.17px 63.5002px"/>
<path class="animable" d="M393,64.59l4.13,1.49a2.12,2.12,0,0,0-1.24-2.8A2.31,2.31,0,0,0,393,64.59Z" fill="#263238" style="transform-origin:395.145px 64.6171px"/>
<path class="animable" d="M378.49,68.75a1.8,1.8,0,0,0,1.71,1.91,1.85,1.85,0,1,0-1.71-1.91Z" fill="#263238" style="transform-origin:380.338px 68.8152px"/>
<polygon class="animable" points="387.69 65.33 386 78.1 379.19 75.8" fill="#9a4a4d" style="transform-origin:383.44px 71.715px"/>
<path class="animable" d="M392.53,79.7a3.19,3.19,0,1,1-6,2.23Z" fill="#9a4a4d" style="transform-origin:389.631px 81.8599px"/>
<path class="animable" d="M392,81.4a3.09,3.09,0,0,0-3.15,2.52,3.1,3.1,0,0,0,1.85-.11,3.16,3.16,0,0,0,2-2.3A3.11,3.11,0,0,0,392,81.4Z" fill="#f28f8f" style="transform-origin:390.775px 82.705px"/>
</g>
<g class="animable" style="transform-origin:395.709px 152.726px">
<g class="animable" style="transform-origin:372.614px 168.7px">
<path class="animable" d="M380.92,180.5h0a1.53,1.53,0,0,1-.36-1.51,4.83,4.83,0,0,1,2.86-3.31,1.57,1.57,0,0,1,1.54.14h0l25.11,20.11h0a2.11,2.11,0,0,1,.58,2.17,6.77,6.77,0,0,1-4,4.62,2.11,2.11,0,0,1-2.23-.27h0Z" fill="#c53f3f" style="transform-origin:395.618px 189.231px"/>
<path class="animable" d="M380.92,180.5h0a1.53,1.53,0,0,1-.36-1.51,4.83,4.83,0,0,1,2.86-3.31,1.57,1.57,0,0,1,1.54.14h0l25.11,20.11h0a2.11,2.11,0,0,1,.58,2.17,6.77,6.77,0,0,1-4,4.62,2.11,2.11,0,0,1-2.23-.27h0Z" opacity=".15" style="transform-origin:395.618px 189.231px"/>
<path class="animable" d="M383.42,175.68c1.31-.45,2.17.29,1.9,1.65a4.83,4.83,0,0,1-2.86,3.31c-1.31.45-2.17-.28-1.9-1.65A4.83,4.83,0,0,1,383.42,175.68Z" fill="#c53f3f" style="transform-origin:382.94px 178.16px"/>
<g class="animable" opacity=".25" style="transform-origin:382.94px 178.16px">
<path class="animable" d="M383.42,175.68c1.31-.45,2.17.29,1.9,1.65a4.83,4.83,0,0,1-2.86,3.31c-1.31.45-2.17-.28-1.9-1.65A4.83,4.83,0,0,1,383.42,175.68Z" style="transform-origin:382.94px 178.16px"/>
</g>
<path class="animable" d="M384.82,178.59l25.35,20.85a5.39,5.39,0,0,0,.48-1.34,2.1,2.1,0,0,0-.59-2.17h0L385,175.83a1.52,1.52,0,0,1,.36,1.51A3.9,3.9,0,0,1,384.82,178.59Z" fill="#c53f3f" style="transform-origin:397.782px 187.635px"/>
<polygon class="animable" points="360.31 161.09 359.89 163.44 365.78 165.7 382.2 179.54 383.17 179.19 382.62 177.19 366.2 163.35" fill="#e0e0e0" style="transform-origin:371.53px 170.315px"/>
<polygon class="animable" points="383.17 179.19 366.75 165.35 367.18 163 383.59 176.84" fill="#ebebeb" style="transform-origin:375.17px 171.095px"/>
<polygon class="animable" points="366.75 165.35 360.86 163.09 361.28 160.74 367.18 163" fill="#f0f0f0" style="transform-origin:364.02px 163.045px"/>
<polygon class="animable" points="361.28 160.74 360.86 163.09 353.81 166.49 356.05 152.05" fill="#ebebeb" style="transform-origin:357.545px 159.27px"/>
<path class="animable" d="M338.78,134.86c-.57-.57-1.17-.49-1.29.16l-3,16.87a2.3,2.3,0,0,0,.89,2l17.71,12.44c.51.36,1,.21,1.07-.35l2.24-12.55a2.28,2.28,0,0,0-.68-1.82Zm12.12,27.4c-.06.36-.94,0-2-.7L339,154.34c-1-.74-1.81-1.63-1.74-2s.94,0,2,.71l9.94,7.21C350.19,161,351,161.91,350.9,162.26Zm-1.25-4.8c1,.8,1.8,1.74,1.74,2.1s-.95,0-2-.81L339.59,151c-1-.8-1.8-1.74-1.74-2.09s.95,0,2,.8Zm.5-2.8c1,.86,1.78,1.84,1.72,2.19s-.94,0-1.95-.9l-9.74-8.22c-1-.85-1.78-1.83-1.72-2.18s.94,0,2,.9ZM341,143.14l9.65,8.72c1,.91,1.77,1.93,1.7,2.29s-.92-.09-1.93-1l-9.65-8.72c-1-.91-1.76-1.93-1.7-2.29S340,142.23,341,143.14Zm.59-3.31,9.57,9.24c1,1,1.74,2,1.68,2.37s-.92-.13-1.91-1.08l-9.57-9.25c-1-1-1.74-2-1.68-2.37S340.6,138.87,341.59,139.83Z" fill="#e0e0e0" style="transform-origin:345.445px 150.502px"/>
</g>
<path class="animable" d="M456.51,160.74c-.91-5-3.25-11.74-4.2-15.32-1.91-7.16-7.69-18.72-8.52-23.33s-2.25-11.91-9.08-16.11c-3.21-2-5.74-2.08-10.13-3.45a29.24,29.24,0,0,0-4.95,18c.39,7.45,3.17,10.57,5.81,18.8s5.6,17.16,7.57,21.1c-5.49,4.48-19.14,14.81-22,16.41a12.4,12.4,0,0,1-8.46,2.35c-3.9-.28-7.3,1.22-10.78,2.07l2.68,2.15a1.68,1.68,0,0,1,0,2.65,7.23,7.23,0,0,1-6.66.78l-3.4-3.15c-.3.72-.76,1.71-1.29,3.2-.88,2.49-.91,4.27-.15,5a4.32,4.32,0,0,1,.92.89c.5.84-.06,2,.35,2.89.35.74,1.23,1.05,1.78,1.66a7.76,7.76,0,0,1,1,1.93c.47,1,1.14,1.05,2,1.54a4.9,4.9,0,0,0,2.37,1.11c4.3,0,6.85-1,11.11-1.5,4.51-.58,5.4-1.89,8.11-4.58a23.78,23.78,0,0,1,6.62-5c3-1.66,6.08-3.12,9.11-4.7h0c12.4-5.05,22.88-10.57,28.3-15C456.9,169.15,457.42,165.77,456.51,160.74Z" fill="#b16668" style="transform-origin:419.671px 152.22px"/>
<path class="animable" d="M433,160.43c3-1.07,7.32-.68,9.81,1.34a18,18,0,0,0-13.77,1.86Z" fill="#9a4a4d" style="transform-origin:435.925px 161.74px"/>
</g>
</g>
</g>
</g>
<g class="animable" style="transform-origin:131.945px 206.226px">
<g class="animable" style="transform-origin:131.945px 206.226px">
<g class="animable" style="transform-origin:115.045px 275.925px">
<path class="animable" d="M70.11,337.71c2.61-12.95,2-24.61,3.19-43.54,1.09-16.9,5.67-22.87,5.91-26.12,0,0,.55-30.86,3.14-67.74,1.31-18.77,6.27-23.07,10.3-32.3l49.94.15c6.93,24.36,6.45,66,6.29,89.44,0,3.3-.8,13.71-1.72,22.9-2.42,24.13-4.83,49.38-5,54.85-.12,5.24.12,7.29,2.16,9.49,4.29,4.6,10.51,9,15.88,13-.78,2.05-7.24,2-10.44.41a81.44,81.44,0,0,1-11.92-7.6c-4.42-3.27-10.06-5.89-10.13-10.86,0-.62-.15-2.2-.12-2.3-.09-6.79-6.88-38.3-7.45-48.24-.48-8.54.56-23,.56-23l-5-39.22s-7.15,28.34-10.59,43c-2.79,11.89-8,29-11.58,40.75s-5.32,17-8.74,29.8c-.15,3.17-5.84,23.08-6.79,27.61s-10.81,4.64-11.44-3.15C66.13,359.76,69.53,340.6,70.11,337.71Z" fill="#ffbda7" style="transform-origin:113.361px 269.658px"/>
<path class="animable" d="M115.69,227l3.57-23.08s15.58-1.85,21.24-7.29c0,0-7.14,10.08-17.71,11.73L118.34,230l2.35,35.91Z" fill="#f0997a" style="transform-origin:128.095px 231.27px"/>
<path class="animable" d="M169.38,363.08c.27,0,.72,3-.75,4.3-1.7,1.5-6.7,4-13.35,3.19s-10.27-2.81-13-5-6.44-5.3-9.45-5.93c-2.8-.59-5.84-1.82-6.75-2.67s-.82-4.69-.82-4.69Z" fill="#263238" style="transform-origin:147.46px 361.504px"/>
<path class="animable" d="M127.63,337.48s-.67,0-.83.91c-.2,1.06-.38,4.14-.8,5.88a31.08,31.08,0,0,0-.56,9.33c.39,2,5,3.28,7.88,4.35a37.13,37.13,0,0,1,9.48,5.85c3.15,2.54,9.74,5.05,14.08,5.07,6.61,0,10.87-1.81,12.16-4.2,1.61-3,.31-4.65-7.33-8.09-1.44-.65-6.52-3.58-8.26-4.65a38.71,38.71,0,0,1-5.21-3.79,29.47,29.47,0,0,1-2.34-2.27,10.17,10.17,0,0,1-2-2.44c-.09-.19-.15-.43-.23-.64a9.94,9.94,0,0,1-.51-1.77c-.13-.63-.22-1.55-.83-1.92a5,5,0,0,0-2.71-.29,20.5,20.5,0,0,0-2.93.44c-1.11.26-2.41.38-3.06,1.43a5.57,5.57,0,0,0-.59,2.76c0,.45,0,.89,0,1.34,0,.19.08.53-.19.45s-.54-.73-.64-1c-.21-.49-.35-1-.59-1.51a8.38,8.38,0,0,0-1-1.6,7.35,7.35,0,0,0-1.22-1.21,12.61,12.61,0,0,1-1.31-.83A2.7,2.7,0,0,1,127.63,337.48Z" fill="#37474f" style="transform-origin:147.48px 353.175px"/>
<path class="animable" d="m163 357.15c-9.57 0.76-12.52 6.7-12.89 10.37a22.84 22.84 0 0 0 6.82 1.35c6.61 0 11.14-1.81 12.44-4.2 1.46-2.79 0.39-5.02-6.37-7.52z" fill="#fafafa" style="transform-origin:160.026px 363.01px"/>
<path class="animable" d="M148.6,357.4a.49.49,0,0,1-.3-.1.47.47,0,0,1-.07-.66,11.28,11.28,0,0,1,8.62-3.5.47.47,0,0,1,.42.51.48.48,0,0,1-.51.42,10.41,10.41,0,0,0-7.8,3.16A.46.46,0,0,1,148.6,357.4Z" fill="#f0f0f0" style="transform-origin:152.699px 355.266px"/>
<path class="animable" d="M144.45,355a.4.4,0,0,1-.29-.1.45.45,0,0,1-.08-.65,11.23,11.23,0,0,1,8.62-3.51.46.46,0,0,1,.42.51.45.45,0,0,1-.51.42,10.43,10.43,0,0,0-7.8,3.16A.46.46,0,0,1,144.45,355Z" fill="#f0f0f0" style="transform-origin:148.55px 352.866px"/>
<path class="animable" d="M140.6,352.34a.46.46,0,0,1-.29-.1.47.47,0,0,1-.08-.66,11.27,11.27,0,0,1,8.62-3.5.47.47,0,0,1-.09.93,10.45,10.45,0,0,0-7.8,3.16A.46.46,0,0,1,140.6,352.34Z" fill="#f0f0f0" style="transform-origin:144.677px 350.206px"/>
<path class="animable" d="M136.83,349.64a.47.47,0,0,1-.37-.75c1.81-2.34,5.93-3.91,9.41-3.56a.46.46,0,0,1,.42.51.47.47,0,0,1-.51.42c-3.13-.31-7,1.13-8.58,3.2A.46.46,0,0,1,136.83,349.64Z" fill="#f0f0f0" style="transform-origin:141.33px 347.461px"/>
<path class="animable" d="M79.67,371.68a20.51,20.51,0,0,1-3.85,9.72c-1.87,2.47-5,3-7.92,1.88a11.33,11.33,0,0,1-7.1-7.53c-1.11-4.22-.69-6.68.44-10.77Z" fill="#263238" style="transform-origin:69.9099px 374.41px"/>
<path class="animable" d="M70.11,337.71c-1.26,0-2.27,6-3.64,11.91-1.46,6.39-3.68,8.86-4.93,14.09-1.44,6-.72,8.79,1,12.68s8.87,8.28,13.13,3.43c3.47-4,4.45-8.34,4.82-14.42.38-6.29,2.34-12,3.1-15.32,1-4.46,2.21-9,1.18-9.6-.16.66-.33,1.49-.49,2.14a10.68,10.68,0,0,1-.66,2.37c-.16.33-.48.65-.54.09a3.61,3.61,0,0,1,.13-1.13c.36-1.65-.47-1.87-.91-2.05-1-.39-6.21-1.6-7.14-1.76s-4.24-.66-4.73-.16a3.7,3.7,0,0,0-.61,1.7c-.2.9-.48,1.55-.48,1.26,0-.66.32-2.34.38-2.75s.17-.92.22-1.32S70,338.1,70.11,337.71Z" fill="#37474f" style="transform-origin:72.9663px 359.834px"/>
<path class="animable" d="m60.82 367.18a15.16 15.16 0 0 0 1.36 9.46c1.73 3.89 9.47 8.36 13.73 3.51a17.24 17.24 0 0 0 3.76 -8.47c-1.79-4.28-14.99-7.57-18.85-4.5z" fill="#fafafa" style="transform-origin:70.1254px 374.123px"/>
<path class="animable" d="M77.41,364.7a.47.47,0,0,1-.15-.06c-.05,0-5.59-3.05-11.38-2.34a.47.47,0,0,1-.52-.41.46.46,0,0,1,.41-.52,22,22,0,0,1,12,2.47.46.46,0,0,1,.15.64A.45.45,0,0,1,77.41,364.7Z" fill="#f0f0f0" style="transform-origin:71.6737px 363.008px"/>
<path class="animable" d="M66.64,357.81a.47.47,0,0,1,0-.91c5.83-1.31,11.76,2.21,12,2.36a.46.46,0,0,1,.13.65.48.48,0,0,1-.65.13s-5.83-3.45-11.25-2.23A.34.34,0,0,1,66.64,357.81Z" fill="#f0f0f0" style="transform-origin:72.57px 358.361px"/>
<path class="animable" d="M67.29,353.58a.49.49,0,0,1-.36-.35.48.48,0,0,1,.35-.57c6.41-1.55,12,2.2,12.21,2.36a.47.47,0,0,1,.09.65.47.47,0,0,1-.66.09s-5.45-3.64-11.42-2.19A.5.5,0,0,1,67.29,353.58Z" fill="#f0f0f0" style="transform-origin:73.295px 354.071px"/>
<path class="animable" d="M68.05,349.42a.48.48,0,0,1-.36-.34.46.46,0,0,1,.33-.57c6-1.56,12.06,2.32,12.28,2.49a.47.47,0,0,1,.11.65.45.45,0,0,1-.65.1c-.06,0-5.91-3.78-11.5-2.34A.5.5,0,0,1,68.05,349.42Z" fill="#ebebeb" style="transform-origin:74.0838px 349.994px"/>
<path class="animable" d="M91.37,168.16c-5.67,10.34-10.67,15.63-13.3,47.56-.25,3.06-.26,6.19-.3,8.84,9.87,8.52,32.11,9.2,37.46,6.44l.24-1.27.27,1.3s23,2.22,36.25-9c-1-18.58-5.21-38.62-8.4-53.63Z" fill="#37474f" style="transform-origin:114.88px 200.305px"/>
<path class="animable" d="M115.47,229.73,121,202.47s12.13-.87,18.88-7.93c-2.74,7.5-12.7,12.75-17.07,13.8L115.74,231Z" fill="#263238" style="transform-origin:127.675px 212.77px"/>
<path class="animable" d="M103,173.28c-.92,2.94-1.73,5.85-2.51,8.78s-1.49,5.87-2.17,8.83-1.37,5.91-2.06,8.87-1.36,5.93-2.09,8.91a59.91,59.91,0,0,1,.6-9.18c.4-3,1-6.06,1.66-9.05a82.81,82.81,0,0,1,2.63-8.83A43.15,43.15,0,0,1,103,173.28Z" fill="#263238" style="transform-origin:98.583px 190.975px"/>
<path class="animable" d="M99,174.39c-.91,1.89-1.9,3.68-2.89,5.47l-2.94,5.36c-1,1.78-1.94,3.56-2.87,5.37l-2.8,5.5a24.58,24.58,0,0,1,1.41-6.1,39.38,39.38,0,0,1,2.56-5.7,42.94,42.94,0,0,1,3.38-5.24A32.17,32.17,0,0,1,99,174.39Z" fill="#263238" style="transform-origin:93.25px 185.24px"/>
</g>
<g class="animable" style="transform-origin:131.945px 141.222px">
<path class="animable" d="M166,136.58c4.17-3.64,10.53-9.76,13.79-14.74s4-7.69,6-10.5,1.48-2.4,4.81-4.36a28.68,28.68,0,0,0,4.58-3,20.24,20.24,0,0,0,3.42-4.23c1.76-.51,2,2.94,1,5s-2.06,3.81-1.67,7.17,1.9,11.49,1.9,11.49-4.68,2.7-6.71,3.54-4.07,2.77-8,9-7.16,13.28-13.39,19.83c-3.88,4.09-7.76,3-9.88,1.47s-4.48-3.21-10.19-8.1c-7.87-6.73-15.32-13.5-15.32-13.5-5.31-6.6-9.12-17.13-6.33-23.38,6.65,1,10-.28,20.47,9.62Z" fill="#ffbda7" style="transform-origin:164.629px 129.162px"/>
<path class="animable" d="M130,112.33c5.05.15,9.53-.4,17.55,6.47,5.41,4.63,16,15.43,16,15.43-3.38-1.07-11.34,5.45-11.26,15.49L134.2,135.29S124.18,122,130,112.33Z" fill="#37474f" style="transform-origin:145.866px 131.025px"/>
<path class="animable" d="M166,136.58c-1.36,1.16-3.21,5.75-2.92,10.15a14,14,0,0,1,1.77-11.23Z" fill="#f0997a" style="transform-origin:164.302px 141.115px"/>
<path class="animable" d="M192.06,118.41a8,8,0,0,0-5,3.64c1.17-2.6,2-3.33,4.77-4.58Z" fill="#f0997a" style="transform-origin:189.56px 119.76px"/>
<path class="animable" d="m185.88 126a9.62 9.62 0 0 0 2.16 1.86 3.46 3.46 0 0 0 3.81 -0.12 10.88 10.88 0 0 0 -1.87 1.64 1.93 1.93 0 0 1 -2 -0.23c-1.31-0.78-2.1-3.15-2.1-3.15z" fill="#f0997a" style="transform-origin:188.865px 127.78px"/>
<path class="animable" d="m192.2 127.49h0.05z" fill="#f0997a" style="transform-origin:192.225px 127.49px"/>
<g class="animable" style="transform-origin:194.108px 82.3091px">
<path class="animable" d="M192.78,96.33h0a1.53,1.53,0,0,1,.79-1.33,4.84,4.84,0,0,1,4.36-.38,1.53,1.53,0,0,1,1,1.18h0l4,31.91h0a2.09,2.09,0,0,1-1.09,2,6.76,6.76,0,0,1-6.09.53,2.07,2.07,0,0,1-1.41-1.74h0Z" fill="#c53f3f" style="transform-origin:197.858px 112.499px"/>
<path class="animable" d="M192.78,96.33h0a1.53,1.53,0,0,1,.79-1.33,4.84,4.84,0,0,1,4.36-.38,1.53,1.53,0,0,1,1,1.18h0l4,31.91h0a2.09,2.09,0,0,1-1.09,2,6.76,6.76,0,0,1-6.09.53,2.07,2.07,0,0,1-1.41-1.74h0Z" opacity=".15" style="transform-origin:197.858px 112.499px"/>
<path class="animable" d="M197.93,94.62a1.33,1.33,0,0,1,.21,2.51,4.82,4.82,0,0,1-4.35.38,1.33,1.33,0,0,1-.22-2.51A4.84,4.84,0,0,1,197.93,94.62Z" fill="#c53f3f" style="transform-origin:195.857px 96.0649px"/>
<g class="animable" opacity=".25" style="transform-origin:195.857px 96.0649px">
<path class="animable" d="M197.93,94.62a1.33,1.33,0,0,1,.21,2.51,4.82,4.82,0,0,1-4.35.38,1.33,1.33,0,0,1-.22-2.51A4.84,4.84,0,0,1,197.93,94.62Z" style="transform-origin:195.857px 96.0649px"/>
</g>
<path class="animable" d="M196.9,97.68l3.66,32.62a5.09,5.09,0,0,0,1.28-.63,2.09,2.09,0,0,0,1.09-2h0l-4-31.91a1.53,1.53,0,0,1-.8,1.33A3.78,3.78,0,0,1,196.9,97.68Z" fill="#c53f3f" style="transform-origin:199.918px 113.03px"/>
<polygon class="animable" points="191.53 68.05 189.59 69.44 192.24 75.17 194.36 96.54 195.3 96.96 196.3 95.15 194.18 73.78" fill="#e0e0e0" style="transform-origin:192.945px 82.505px"/>
<polygon class="animable" points="195.3 96.96 193.18 75.6 195.12 74.21 197.24 95.57" fill="#ebebeb" style="transform-origin:195.21px 85.585px"/>
<polygon class="animable" points="193.18 75.6 190.53 69.87 192.47 68.48 195.12 74.21" fill="#f0f0f0" style="transform-origin:192.825px 72.04px"/>
<polygon class="animable" points="190.53 69.87 187.88 64.14 193.7 59.96 192.47 68.48" fill="#ebebeb" style="transform-origin:190.79px 64.915px"/>
<path class="animable" d="M193.7,60l-2.6-26.11-.48.34s1.59,21.75-.3,23.11-4.56-19.62-4.56-19.62l-.48.34,2.6,26.12Z" fill="#ebebeb" style="transform-origin:189.49px 49.035px"/>
<polygon class="animable" points="190.53 69.87 189.59 69.44 187.3 63.87 185.28 38.02 187.88 64.14" fill="#e0e0e0" style="transform-origin:187.905px 53.945px"/>
</g>
<path class="animable" d="M170.16,57.44a6,6,0,0,1,.29-12c3.5-.12,10.68-2.19,17.63-5.91A49.31,49.31,0,0,0,200,30.71a6,6,0,0,1,9.14,7.86c-2.64,3.07-8.76,8-15.35,11.56-7.93,4.24-16.92,7.12-22.9,7.33A5.56,5.56,0,0,1,170.16,57.44Z" fill="#c53f3f" style="transform-origin:187.452px 43.0383px"/>
<g class="animable" opacity=".3" style="transform-origin:187.452px 43.0383px">
<path class="animable" d="M170.16,57.44a6,6,0,0,1,.29-12c3.5-.12,10.68-2.19,17.63-5.91A49.31,49.31,0,0,0,200,30.71a6,6,0,0,1,9.14,7.86c-2.64,3.07-8.76,8-15.35,11.56-7.93,4.24-16.92,7.12-22.9,7.33A5.56,5.56,0,0,1,170.16,57.44Z" fill="#fff" style="transform-origin:187.452px 43.0383px"/>
</g>
<path class="animable" d="M164.64,51.65s2.15,3.64,10.66,2.26,22.5-8.17,27.15-12.57,7.18-7.29,5.69-11.53a2.78,2.78,0,0,1,.34.26,6,6,0,0,1,.64,8.5c-2.64,3.07-8.76,8-15.35,11.56-7.93,4.24-16.92,7.12-22.9,7.33a5.56,5.56,0,0,1-.71,0A6,6,0,0,1,164.64,51.65Z" fill="#c53f3f" style="transform-origin:187.614px 43.6407px"/>
<path class="animable" d="M192.74,39.63a11.22,11.22,0,0,0-2.16-1.09c-.17-.07-.34-.11-.5-.17l1.28-.79.21.08a8.48,8.48,0,0,1,2,1.23,5.23,5.23,0,0,1,2.13,3.7c0,.06-.06.22-.14.13-.45-.5-.75-1.14-1.19-1.66A7.88,7.88,0,0,0,192.74,39.63Z" fill="#c53f3f" style="transform-origin:192.89px 40.1634px"/>
<path class="animable" d="M202.27,38.11c-.49-.47-.83-1.09-1.31-1.58a7.64,7.64,0,0,0-1.72-1.32,10.77,10.77,0,0,0-2.24-1l-.71-.19,1.13-.93.51.17a8.8,8.8,0,0,1,2.08,1.1A5.27,5.27,0,0,1,202.4,38C202.41,38,202.35,38.19,202.27,38.11Z" fill="#c53f3f" style="transform-origin:199.346px 35.6098px"/>
<path class="animable" d="M188.32,46.37c0,.06-.08.22-.15.12-.42-.53-.67-1.18-1.07-1.73a7.44,7.44,0,0,0-1.53-1.54A10.89,10.89,0,0,0,183.49,42l-.31-.13,1.43-.63a8.59,8.59,0,0,1,1.84,1.32A5.24,5.24,0,0,1,188.32,46.37Z" fill="#c53f3f" style="transform-origin:185.75px 43.8811px"/>
<path class="animable" d="M177.12,44.07a8.67,8.67,0,0,1,1.61,1.35,5.29,5.29,0,0,1,1.62,4c0,.06-.1.21-.16.11-.39-.56-.6-1.23-1-1.81a7.69,7.69,0,0,0-1.42-1.64,11.36,11.36,0,0,0-2-1.39l-.28-.14Q176.3,44.33,177.12,44.07Z" fill="#c53f3f" style="transform-origin:177.922px 46.8167px"/>
<polygon class="animable" points="190.62 34.19 191.1 33.85 191.69 39.74 190.98 40.2" fill="#ebebeb" style="transform-origin:191.155px 37.025px"/>
<polygon class="animable" points="185.28 38.02 185.76 37.68 186.42 42.42 185.77 42.89" fill="#ebebeb" style="transform-origin:185.85px 40.285px"/>
<path class="animable" d="M200.31,106.7s1.27,11.23,1.74,13.91a4.94,4.94,0,0,1-3.3.1,1.24,1.24,0,0,1-.74-1.94,4.65,4.65,0,0,1-2.65.31,1.91,1.91,0,0,1-1.26-2.88,8.63,8.63,0,0,1,1.44-2c-2.92,0-2.43-2.26-1.52-3.37A26,26,0,0,1,200.31,106.7Z" opacity=".15" style="transform-origin:197.683px 113.823px"/>
<path class="animable" d="M193.65,114.34c1.53-3.94,4.93-7.39,5.94-9.51s.78-5.56-1-5a20.24,20.24,0,0,1-3.42,4.23,28.68,28.68,0,0,1-4.58,3s-.92,4.33,2,5.12Z" fill="#ffbda7" style="transform-origin:195.32px 107.055px"/>
<path class="animable" d="M206.21,100.56a17.49,17.49,0,0,1-1.76,3.7,7.88,7.88,0,0,0-1.25,4.53s3.48-.57,3.12.28c-.44,1-.82,2-1.32,3.33,0,0,1.54.5,1.23,1.91-.26,1.22-1.19,3.11-1.06,3.39a11.5,11.5,0,0,0,1.24,2.09,4.16,4.16,0,0,1-1.55,2.17,27.36,27.36,0,0,1-2.45,1.58l-1.72-13.71-.74-6a34.52,34.52,0,0,1,2.63-3.21S205.11,101.34,206.21,100.56Z" fill="#f0997a" style="transform-origin:203.18px 112.05px"/>
<path class="animable" d="M206.24,99.59c.21,1.49-.66,2.07-1.5,3s-2.69,2-3.38,1.21-.31-2.34.84-3.87,1.92-2.07,2.52-1.93A2.21,2.21,0,0,1,206.24,99.59Z" fill="#ffbda7" style="transform-origin:203.644px 101.027px"/>
<path class="animable" d="m206.1 106.25c0.83 1.7 0.56 3-0.95 4.08a37.27 37.27 0 0 1 -6.66 2.92 6.49 6.49 0 0 1 -3.54 0.49 1.4 1.4 0 0 1 -0.86 -2.39 9.67 9.67 0 0 1 2.89 -2.26 58.74 58.74 0 0 1 6.2 -3.34c1.4-0.58 2.49-0.37 2.92 0.5z" fill="#ffbda7" style="transform-origin:200.118px 109.614px"/>
<path class="animable" d="M195,113.74a1.58,1.58,0,0,1-1.29-1.07,1.77,1.77,0,0,1,.57-1.62,11.35,11.35,0,0,1,2.78-2.11,43.93,43.93,0,0,1,6.17-3.19c-1.05.48-2.06,1.06-3.06,1.62s-2,1.16-3,1.76a11.86,11.86,0,0,0-2.76,2,1.65,1.65,0,0,0-.6,1.49A1.53,1.53,0,0,0,195,113.74Z" fill="#f0997a" style="transform-origin:198.458px 109.745px"/>
<path class="animable" d="M202.89,111.43c1.29-.56,2.79-.25,3.19.75s.46,2.63-.77,3.32-5,1.85-6.14,2.3a10.07,10.07,0,0,1-3.26.79,1.55,1.55,0,0,1-1.21-2.45,5.44,5.44,0,0,1,2.18-2A25.6,25.6,0,0,1,202.89,111.43Z" fill="#ffbda7" style="transform-origin:200.374px 114.872px"/>
<path class="animable" d="M206.21,120.31a4,4,0,0,0,.55-2.76c-.12-.68-.49-1.55-1.55-1.54a8.34,8.34,0,0,0-2.68.62,7.06,7.06,0,0,0-3.27,1.75c-.66.64-.53,2.28.69,2.34a8.87,8.87,0,0,0,3.14-.35C204.61,119.93,205.52,119.51,206.21,120.31Z" fill="#ffbda7" style="transform-origin:202.839px 118.375px"/>
<path class="animable" d="m84.69 174.7a87.53 87.53 0 0 0 2.8 -12.46c1.65-12.24-0.52-18.45-1.33-23.81-1.74-11.66 2.61-22.19 5.32-24.49 0 0 5.34-1.32 11.13-2.43a72.61 72.61 0 0 1 16.77 -1.2c1.26 0.13 10.64 2 10.65 2a47.88 47.88 0 0 1 8.13 10.88c3 5.28 4.71 11.14 5.88 22.24 1.52 14.35 2.6 20.67 2.76 28.94-11.94 7.36-46.7 9.31-62.11 0.33z" fill="#c53f3f" style="transform-origin:115.745px 145.465px"/>
<path class="animable" d="m117.75 121.63c8-1.08 7.2-5 5.69-7.32 0 0 9.06 3.32 15.52 8.68a38.47 38.47 0 0 0 -8.96 -10.66s-9.39-1.89-10.65-2a72.61 72.61 0 0 0 -16.77 1.2c-5.79 1.11-11.13 2.43-11.13 2.43-1.75 1.48-4.17 6.39-5.2 12.82l6 9.44 12.47-18.54a16.77 16.77 0 0 0 13.03 3.95z" fill="#37474f" style="transform-origin:112.605px 123.239px"/>
<path class="animable" d="M104.25,138c.27,11.81-1.11,22.77-7.15,25.47a9.38,9.38,0,0,1-9.61-1.22l-.95,5.25,6,2.17-5,81.18c18.52,4.88,53.56,3.63,66.79-2.73,0,0-6.37-95.66-11.27-113.85s-13-21.93-13-21.93l-5-1s10.07,9.63,11.9,19.26l-25.49,1.26s-3.6-13.85-8.79-20.34l-5.51,1.14S104,126.82,104.25,138Z" fill="#c53f3f" style="transform-origin:120.435px 182.586px"/>
<path class="animable" d="M104.25,138c.27,11.81-1.11,22.77-7.15,25.47a9.38,9.38,0,0,1-9.61-1.22l-.95,5.25,6,2.17-5,81.18c18.52,4.88,53.56,3.63,66.79-2.73,0,0-6.37-95.66-11.27-113.85s-13-21.93-13-21.93l-5-1s10.07,9.63,11.9,19.26l-25.49,1.26s-3.6-13.85-8.79-20.34l-5.51,1.14S104,126.82,104.25,138Z" opacity=".35" style="transform-origin:120.435px 182.586px"/>
<path class="animable" d="M115.09,232.62c-.18,4.36-.36,8.72-.49,13.08a42.23,42.23,0,0,1-10.36.1,92.11,92.11,0,0,1-10.31-1.5l.3-6.33.26-6.67c.19-4.45.32-8.9.44-13.35q-.54,6.66-1,13.32l-.44,6.66-.39,6.66,0,.34.33.07c1.77.4,3.55.71,5.34,1s3.58.52,5.39.68,3.61.25,5.43.23a32.39,32.39,0,0,0,5.46-.48l.31-.06v-.32c.12-4.47.19-8.94.25-13.42s.11-8.95.11-13.43C115.5,223.67,115.27,228.14,115.09,232.62Z" opacity=".15" style="transform-origin:104.41px 232.431px"/>
<path class="animable" d="M130.3,231.34c.17,4.36.34,8.73.47,13.09a42.63,42.63,0,0,0,10.35.12,91.72,91.72,0,0,0,10.31-1.48l-.28-6.32-.25-6.68q-.26-6.67-.4-13.35.51,6.66.94,13.32l.42,6.67.37,6.66,0,.34-.32.07c-1.78.39-3.56.7-5.35,1s-3.58.51-5.39.67-3.61.25-5.43.22a32.2,32.2,0,0,1-5.45-.49l-.32-.06v-.32c-.12-4.47-.17-8.95-.23-13.42s-.09-9-.08-13.43C129.91,222.4,130.13,226.87,130.3,231.34Z" opacity=".15" style="transform-origin:140.944px 231.198px"/>
<g class="animable" style="transform-origin:81.2518px 164.829px">
<path class="animable" d="m91.3 114.35c-6.45 1.65-13.87 2.7-20.3 15.21-5.66 11.11-11.54 21.08-16.13 33.9-2.43 6.78-2.7 8.65 3.93 14.25 11.69 9.87 19.52 14.54 23.93 18.76a16.65 16.65 0 0 1 4.28 6.4s8-22.59 2.42-20.39c-2.92 1.16-12.91-12-15.48-14.82l15.06-24.28c2.73-3.92 6.09-16.13 2.29-29.03z" fill="#ffbda7" style="transform-origin:73.1487px 158.61px"/>
<path class="animable" d="m91.48 113.94c-6.19 1.57-13.47 3.17-17.9 10.3-5.12 8.23-15 28.31-16.54 33.67 1.44 2.54 13 7.83 18.6 7.27l13.21-20.93a35 35 0 0 0 4.78 -16.81c0.2-9.74-2.15-13.5-2.15-13.5z" fill="#37474f" style="transform-origin:75.341px 139.581px"/>
<g class="animable" style="transform-origin:99.5px 184.195px">
<g class="animable" style="transform-origin:99.5px 184.195px">
<g class="animable" style="transform-origin:99.5px 184.195px">
<path class="animable" d="M109.21,210.94v-30.6c0-2-2.21-4.71-3-5.89-1-1.59-1-3.79-1.27-6.48-.34-3.89-1.85-7.37-2.11-10.18a1.08,1.08,0,0,0,.36-1c-.14-.64-.86-.89-.86-1.05a5.79,5.79,0,0,0-5.7,0c0,.16-.72.41-.85,1.05a.89.89,0,0,0,0,.22,1.15,1.15,0,0,0,.38.8c-.26,2.81-1.76,6.29-2.11,10.18-.24,2.69-.22,4.89-1.26,6.48-.78,1.18-3,3.89-3,5.89V211h0c0,1.21.95,2.41,2.84,3.33a17.7,17.7,0,0,0,13.74,0C108.27,213.36,109.22,212.15,109.21,210.94Z" fill="#37474f" style="transform-origin:99.5px 185.354px"/>
<path class="animable" d="M101.84,157.31c.65-.32,1-.73,1-1.14v0c-.23-.2-.46-.32-.46-.42a5.79,5.79,0,0,0-5.7,0c0,.1-.23.22-.46.42v0c0,.41.33.83,1,1.14A6,6,0,0,0,101.84,157.31Z" fill="#263238" style="transform-origin:99.53px 156.386px"/>
<path class="animable" d="M103,158.92c-.07-.39-.12-.76-.16-1.13a2.51,2.51,0,0,1-.71.48,6.81,6.81,0,0,1-5.28,0,2.66,2.66,0,0,1-.71-.48c0,.36-.09.74-.16,1.13L96,159a2.36,2.36,0,0,0,.82.6,6.81,6.81,0,0,0,5.28,0A2.15,2.15,0,0,0,103,158.92Z" fill="#263238" style="transform-origin:99.49px 158.961px"/>
<path class="animable" d="M102.81,155.72a3.14,3.14,0,0,0-.49-2.11l0,0-.1-.1a1.54,1.54,0,0,0-.23-.18l0,0h0a2.14,2.14,0,0,0-.3-.17,5.57,5.57,0,0,0-4.28,0,2.14,2.14,0,0,0-.3.17h0l0,0-.23.18-.1.1,0,0a3.15,3.15,0,0,0-.5,2.12c0,.42.33.83,1,1.14a6,6,0,0,0,4.68,0C102.49,156.54,102.81,156.13,102.81,155.72Z" fill="#37474f" style="transform-origin:99.5455px 155.039px"/>
<path class="animable" d="m97.36 155.18c-1.18-0.57-1.18-1.5 0-2.08a5.57 5.57 0 0 1 4.28 0c1.18 0.58 1.18 1.51 0 2.08a5.57 5.57 0 0 1 -4.28 0z" fill="#455a64" style="transform-origin:99.5px 154.14px"/>
<path class="animable" d="M98,154.88c-.85-.41-.85-1.07,0-1.48a3.94,3.94,0,0,1,3,0c.84.41.84,1.07,0,1.48A3.94,3.94,0,0,1,98,154.88Z" fill="#263238" style="transform-origin:99.4963px 154.14px"/>
<path class="animable" d="M108.11,180.34v30.29c0,.92-.81,1.82-2.29,2.54a16.46,16.46,0,0,1-12.63,0c-1.48-.72-2.3-1.62-2.3-2.53v-30.3c0-1.4,1.46-3.46,2.33-4.68.21-.3.39-.55.52-.76,1-1.44,1.12-2.71,1.27-5.14,0-.59.08-1.17.13-1.72a.28.28,0,0,1,0-.09l0-.33a2.19,2.19,0,0,1,1.24-1.22,8,8,0,0,1,6.16,0,2.12,2.12,0,0,1,1.24,1.24l0,.28V168c0,.55.09,1.13.13,1.72.16,2.43.32,3.7,1.27,5.14l.52.75C106.65,176.88,108.11,178.94,108.11,180.34Z" fill="#c53f3f" style="transform-origin:99.5px 190.106px"/>
<path class="animable" d="M108.11,180.34v30.29c0,.92-.81,1.82-2.29,2.54a16.46,16.46,0,0,1-12.63,0c-1.48-.72-2.3-1.62-2.3-2.53v-30.3c0-1.4,1.46-3.46,2.33-4.68.21-.3.39-.55.52-.76,1-1.44,1.12-2.71,1.27-5.14,0-.59.08-1.17.13-1.72a.28.28,0,0,1,0-.09l0-.33a2.19,2.19,0,0,1,1.24-1.22,8,8,0,0,1,6.16,0,2.12,2.12,0,0,1,1.24,1.24l0,.28V168c0,.55.09,1.13.13,1.72.16,2.43.32,3.7,1.27,5.14l.52.75C106.65,176.88,108.11,178.94,108.11,180.34Z" opacity=".2" style="transform-origin:99.5px 190.106px"/>
<path class="animable" d="m93.56 213.07c-3.28-1.59-3.28-4.18 0-5.77a15.39 15.39 0 0 1 11.88 0c3.28 1.59 3.28 4.18 0 5.77a15.3 15.3 0 0 1 -11.88 0z" opacity=".1" style="transform-origin:99.5px 210.189px"/>
<path class="animable" d="M103.85,167.92c0,.54-.44,1.06-1.27,1.47a7.93,7.93,0,0,1-6.16,0c-.82-.4-1.24-.92-1.27-1.44a1.23,1.23,0,0,1,0-.33,2.19,2.19,0,0,1,1.24-1.22,8,8,0,0,1,6.16,0,2.12,2.12,0,0,1,1.24,1.24A1.41,1.41,0,0,1,103.85,167.92Z" fill="#c53f3f" style="transform-origin:99.4944px 167.898px"/>
<path class="animable" d="M103.85,167.92c0,.54-.44,1.06-1.27,1.47a7.93,7.93,0,0,1-6.16,0c-.82-.4-1.24-.92-1.27-1.44a1.23,1.23,0,0,1,0-.33,2.19,2.19,0,0,1,1.24-1.22,8,8,0,0,1,6.16,0,2.12,2.12,0,0,1,1.24,1.24A1.41,1.41,0,0,1,103.85,167.92Z" opacity=".4" style="transform-origin:99.4944px 167.898px"/>
<path class="animable" d="M101.16,215.59a16.64,16.64,0,0,1-2.62-.52,9.91,9.91,0,0,1-3.72-1.81A3.15,3.15,0,0,1,93.58,211V180.34c0-2,1.55-4.65,2.19-5.89,1.06-2.09.47-4.32.7-7,.31-3.42.92-6.3,1.25-8.87a.62.62,0,0,1,.11-1,1.74,1.74,0,0,1,.68-.3,1.1,1.1,0,0,1,0-1.73c-2.27-.75-2.2-2.42.52-2.84a4.77,4.77,0,0,0-1.67.41,2.14,2.14,0,0,0-.3.17h0l0,0-.23.18-.1.1,0,0a3.15,3.15,0,0,0-.5,2.12.89.89,0,0,0,.08.35,1.24,1.24,0,0,0-.47.7.89.89,0,0,0,0,.22,1.15,1.15,0,0,0,.38.8c-.26,2.81-1.76,6.29-2.11,10.18-.24,2.69-.22,4.89-1.26,6.48-.78,1.18-3,3.89-3,5.89V211h0c0,1.21.95,2.41,2.84,3.33A17.15,17.15,0,0,0,101.16,215.59Z" opacity=".2" style="transform-origin:95.505px 184.197px"/>
<path class="animable" d="M103,156.64c-.09-.16-.32.69-1.21,1.14a8,8,0,0,1-3.89.7,8.18,8.18,0,0,0,3.72-.27C103.15,157.58,103.19,157,103,156.64Z" fill="#fafafa" opacity=".1" style="transform-origin:100.49px 157.601px"/>
<path class="animable" d="M102,153.39a1.88,1.88,0,0,1,.62,1.36,2.53,2.53,0,0,1,0,1.35c-.15.29-1.17,1.05-3.23,1.09,1.46-.46,2.51-.83,2.82-1.47A2.34,2.34,0,0,0,102,153.39Z" fill="#fafafa" opacity=".1" style="transform-origin:101.051px 155.29px"/>
<path class="animable" d="M107.37,180.34v30.6c0,.68-.69,1.41-1.92,2a14.14,14.14,0,0,1-6,1.18c6.12-.64,5.85-3.3,5.85-6.1V183.67c0-5.77-2.11-6.23-3.22-8.6s-.09-6.25-.68-9.83c-.4-2.38-.81-3.73-1-5.17a6.66,6.66,0,0,0,.93-.18c.17.8.39,1.63.62,2.48a33.38,33.38,0,0,1,1.17,5.71c0,.44.07.87.1,1.29.17,2.26.32,4.2,1.39,5.83.13.21.32.47.53.77C105.93,177.07,107.37,179.11,107.37,180.34Z" fill="#fafafa" opacity=".2" style="transform-origin:103.41px 187.007px"/>
</g>
</g>
</g>
<path class="animable" d="M85.05,191.06a9.78,9.78,0,0,1,1.08-4.44c.61-1.33.92,6.72.92,6.72l-.42,8.42,0,.06a15.36,15.36,0,0,0-2.84-4.34,5.78,5.78,0,0,1,.49-2.75A7,7,0,0,0,85.05,191.06Z" fill="#f0997a" style="transform-origin:85.4134px 194.146px"/>
<path class="animable" d="M85.12,196.09a12.2,12.2,0,0,1,.57-1.74c.46-1.35,0-2.94,0-4.35a9,9,0,0,1,.76-4.2c.49-1.15,2-1.83,3.09-2.39l0,.36s.14,4.67.16,5.06c1.74,4.43,6.55,5.31,9.37,7.75,2.65,2.28,1.66,4.63.2,4.54a23.39,23.39,0,0,1-3.68-.67,15.44,15.44,0,0,1,4.7,2.68c3,2.24,1.92,4.08.78,4.05-.73,0-7.09-1.4-7.09-1.4A19.68,19.68,0,0,1,97.87,208c1.39,1.17,1.27,3.08-.32,2.86a47.7,47.7,0,0,1-8.15-2.4,3,3,0,0,1-1.05-.88,24.39,24.39,0,0,1-2.4-3.78,5.69,5.69,0,0,1-.85-1.88,12.85,12.85,0,0,1,.22-2c.08-1.23-.42-2.45-.23-3.67Z" fill="#ffbda7" style="transform-origin:93.6405px 197.144px"/>
<path class="animable" d="M95.6,200.45a22.78,22.78,0,0,0-2.5-1,8.58,8.58,0,0,1-2.3-1.06c-.65-.56-1.28-1.21-1.93-1.82s-1.33-1.21-2-1.85A11.67,11.67,0,0,0,88.4,197a15.44,15.44,0,0,0,1.9,2,6.48,6.48,0,0,0,2.63,1Q94.25,200.27,95.6,200.45Z" fill="#f0997a" style="transform-origin:91.235px 197.585px"/>
<path class="animable" d="M94,205.78c-.78-.33-1.56-.6-2.34-.86a11.14,11.14,0,0,1-2.18-.88,3.32,3.32,0,0,1-.71-.82l-.7-1c-.47-.67-1-1.33-1.51-2a15.58,15.58,0,0,0,1,2.3c.18.38.4.73.61,1.1a3.42,3.42,0,0,0,.89,1.05,7.24,7.24,0,0,0,2.46.83A17.51,17.51,0,0,0,94,205.78Z" fill="#f0997a" style="transform-origin:90.28px 203px"/>
<path class="animable" d="m74 167.66c-2.32-2.39-9-3.86-11.92-1.52 4.64-1.81 11.13 1.93 14.76 4.88z" fill="#f0997a" style="transform-origin:69.46px 167.99px"/>
</g>
<path class="animable" d="M137.79,120.09a5.46,5.46,0,0,0-4.88-3.51c-.16-2.73-.4-3.92-1.27-5.48-1-1.89-2.08-2.66-3.67-2.66a9.87,9.87,0,0,0,0-3.75,8,8,0,0,0-2.45-4.43l-12.2-4a9.16,9.16,0,0,0-.25,3,5.86,5.86,0,0,0,4,4.91,4.87,4.87,0,0,0,1.67,5.42,9.57,9.57,0,0,0,4.66,1.7,4.42,4.42,0,0,0,2.13,5.24,10.52,10.52,0,0,0,4.89,1.4,3,3,0,0,0,1.17,3.39,40.23,40.23,0,0,0,3.85,1.87,4.66,4.66,0,0,1,2.69,3.13A10.39,10.39,0,0,0,137.79,120.09Z" fill="#263238" style="transform-origin:125.747px 111.29px"/>
<g class="animable" style="transform-origin:111.035px 89.2431px">
<g class="animable" style="transform-origin:111.035px 89.2431px">
<path class="animable" d="M132.84,78.75c-1.53-16.82-11.62-22.62-26.61-19.1-4.93,1.16-10.61,3.46-11.79,10.22C88,72.3,85.68,81.3,90.28,90.48c3.34,6.66,10.15,10.92,11.85,14.69Z" fill="#263238" style="transform-origin:110.356px 81.917px"/>
<path class="animable" d="M94.92,83.69c4.13-2.09,6.51,2.22,6.51,2.22,2.85,1.56,4.12-4,4.63-5.74.89-3,1.66-7.16,4.8-8.54,2.34-1,5.1-.3,7.36.89a5.56,5.56,0,0,0,4.41.33c1.29-.43,1.59-2.5,2.75-3.21,3.33-2,6.32,3.47,6.94,6.16a58,58,0,0,1,1.82,10.9c.44,12.31-1.68,16.06-5.11,18.2a17.32,17.32,0,0,1-9.42,2.2l.26,3.62s6.28,7.08-.74,8.75-14.88-2.89-16.49-7.6L101.4,95.7c-.68,1.66-4,2.3-6.37-.46C91.89,91.66,91,85.69,94.92,83.69Z" fill="#ffbda7" style="transform-origin:113.256px 94.5158px"/>
<path class="animable" d="m116.61 94.64l7.46 1.86a3.78 3.78 0 0 1 -4.58 2.93 4 4 0 0 1 -2.88 -4.79z" fill="#b16668" style="transform-origin:120.286px 97.0863px"/>
<path class="animable" d="M117.19,96.3a4.24,4.24,0,0,1,4.43,3,3.66,3.66,0,0,1-2.13.12,4,4,0,0,1-2.86-3A4.63,4.63,0,0,1,117.19,96.3Z" fill="#f28f8f" style="transform-origin:119.125px 97.9041px"/>
<path class="animable" d="M119.61,107.1c-4-.39-11.4-1.92-12.8-5.13,0,0,0,2.67,3.18,4.84,2.69,1.82,9.79,2.64,9.79,2.64Z" fill="#f0997a" style="transform-origin:113.295px 105.71px"/>
</g>
<path class="animable" d="m131.59 78.82l-4.15-1a2.05 2.05 0 0 1 2.56 -1.63 2.25 2.25 0 0 1 1.59 2.63z" fill="#263238" style="transform-origin:129.539px 77.4688px"/>
<path class="animable" d="M110.72,81.61l3.71-2.13a2.06,2.06,0,0,0-2.86-.85A2.25,2.25,0,0,0,110.72,81.61Z" fill="#263238" style="transform-origin:112.447px 79.9834px"/>
<path class="animable" d="m130.56 83.26a1.83 1.83 0 1 1 -2.07 -1.64 1.88 1.88 0 0 1 2.07 1.64z" fill="#263238" style="transform-origin:128.738px 83.436px"/>
<path class="animable" d="m116.9 85.07a1.83 1.83 0 1 1 -2.07 -1.64 1.86 1.86 0 0 1 2.07 1.64z" fill="#263238" style="transform-origin:115.078px 85.2449px"/>
<polygon class="animable" points="120.99 81.92 123.42 92.94 129 90" fill="#f0997a" style="transform-origin:124.995px 87.43px"/>
</g>
<path class="animable" d="M106.49,123.74a5.48,5.48,0,0,0-3.36-5c.79-2.61,1-3.82.7-5.58-.33-2.14-1-3.21-2.52-3.76a10.22,10.22,0,0,0,1.26-3.54,8,8,0,0,0-.77-5L91.73,92.94a8.7,8.7,0,0,0-1.27,2.73,5.85,5.85,0,0,0,2,6,4.85,4.85,0,0,0-.31,5.66A9.56,9.56,0,0,0,96,110.52a4.42,4.42,0,0,0,.19,5.66,10.62,10.62,0,0,0,4.1,3,3,3,0,0,0-.08,3.58,37.59,37.59,0,0,0,3,3.09,4.68,4.68,0,0,1,1.44,3.87A10.4,10.4,0,0,0,106.49,123.74Z" fill="#263238" style="transform-origin:98.3847px 111.33px"/>
<g class="animable" style="transform-origin:112.644px 74.2468px">
<path class="animable" d="M129.2,70.36h-.15c-8.47-.53-18.16,2.71-25.69,8.08-.24.16-.48.35-.73.53l-.19.16c-3.59,2.44-6.75,4.7-9,7.43s-2.44,3.11-3,4.32a24.32,24.32,0,0,1-2.19-5.49c-1.27-4.7-1.46-18.32,13.46-24.91,11.46-5.07,22.15-3.19,25.41,3.87C127.8,65.87,128.54,68.75,129.2,70.36Z" fill="#455a64" style="transform-origin:108.458px 74.2468px"/>
<path class="animable" d="M102,77.44a24.89,24.89,0,0,1,8.22-10.33c4.06-3.17,13.22-4.89,17.35-5.54,7.23-1.14,9.22.09,9.49,1.14.07.25.37,1.4.45,1.66a1,1,0,0,1,0,.7c-.8,1.83-6.13,5.68-6.13,5.68-9.44-.93-20.44,2.48-28.88,8.38Z" fill="#c53f3f" style="transform-origin:119.787px 70.1219px"/>
<path class="animable" d="M102.44,79.13c8.44-5.9,19.67-9,28.88-8.38,0,0,5.33-3.85,6.13-5.68.42-1-.51-3.22-9.45-1.81-4.13.65-13.29,2.37-17.35,5.54A24.81,24.81,0,0,0,102.44,79.13Z" fill="#37474f" style="transform-origin:119.986px 70.9671px"/>
</g>
<path class="animable" d="m113.25 73.59c2 3.66 6.52 6.27 10.35 5.88a9 9 0 0 1 -2 -2.2c4.67 1.51 10.95 0.59 13.65 5.68 3.95-14.26-14.57-19.95-22-9.36z" fill="#263238" style="transform-origin:124.523px 75.5359px"/>
</g>
</g>
</g>
<g class="animable" style="transform-origin:250px 157.509px">
<g class="animable" style="transform-origin:250px 157.509px">
<g class="animable" style="transform-origin:250px 157.509px">
<path class="animable" d="M250,120.29a32.19,32.19,0,1,0,32.19,32.19A32.23,32.23,0,0,0,250,120.29Zm21.65,52.45-2.46,2.34a29.65,29.65,0,0,1-41.79-41.8l2.34-2.46a29.65,29.65,0,0,1,41.91,41.92Z" fill="#c53f3f" style="transform-origin:250px 152.48px"/>
<path class="animable" d="M279.68,152.48a29.6,29.6,0,0,1-8,20.26l-2.46,2.34a29.65,29.65,0,0,1-41.79-41.8l2.34-2.46a29.66,29.66,0,0,1,49.94,21.66Z" fill="#fafafa" style="transform-origin:250.038px 152.472px"/>
<path class="animable" d="m248.26 193.53l-4.12-10.64h11.73l-4.12 10.64a1.87 1.87 0 0 1 -3.49 0z" fill="#c53f3f" style="transform-origin:250.005px 188.809px"/>
</g>
<path class="animable" d="m250 170.5c-20.94-11.16-22.63-23.13-16.54-29 5.45-5.24 15.43-1.78 16.54 5.71 1.11-7.49 11.09-10.95 16.54-5.71 6.09 5.87 4.4 17.84-16.54 29z" fill="#c53f3f" style="transform-origin:250px 154.743px"/>
<path class="animable" d="m250 170.5c-20.94-11.16-22.63-23.13-16.54-29 5.45-5.24 15.43-1.78 16.54 5.71 1.11-7.49 11.09-10.95 16.54-5.71 6.09 5.87 4.4 17.84-16.54 29z" fill="#fff" opacity=".3" style="transform-origin:250px 154.743px"/>
</g>
</g>
</svg>
